<svg width="761" height="256" viewBox="0 0 761 256" fill="none" xmlns="http://www.w3.org/2000/svg">
<path d="M11.3103 29.9595L9.77425 29.5275C7.87025 28.9515 6.52625 28.1355 6.52625 26.2475C6.52625 23.9435 8.44625 22.8555 10.6063 22.8555C13.0863 22.8555 14.6383 24.1835 14.6383 26.5675H12.7823C12.7823 25.0475 12.0623 24.1835 10.5583 24.1835C9.11825 24.1835 8.33425 24.9355 8.33425 25.9755C8.33425 27.4155 9.47025 27.5755 11.6623 28.2155C14.0303 28.8715 14.8623 29.8315 14.8623 31.6235C14.8623 33.8475 13.1023 35.1115 10.5583 35.1115C7.93425 35.1115 6.27025 33.7675 6.27025 31.1115H8.15825C8.15825 32.9355 9.13425 33.7995 10.6383 33.7995C12.0143 33.7995 13.0543 33.0955 13.0543 31.7995C13.0543 30.7595 12.3983 30.2635 11.3103 29.9595ZM17.0609 23.1275H18.8209V34.8555H17.0609V23.1275ZM26.7981 24.4875H20.9421V23.1275H28.8941V24.5355C28.0141 26.0235 23.6301 31.9595 22.7501 33.4635H28.8941V34.8555H20.5901V33.4955L26.7981 24.4875ZM30.7484 23.1275H37.6444V24.4875H32.5244V28.0075H37.0204V29.3835H32.5244V33.4955H37.7724V34.8555H30.7484V23.1275Z" fill="#A8A8A8"/>
<path d="M22.7165 73.9595L21.1805 73.5275C19.2765 72.9515 17.9325 72.1355 17.9325 70.2475C17.9325 67.9435 19.8525 66.8555 22.0125 66.8555C24.4925 66.8555 26.0445 68.1835 26.0445 70.5675H24.1885C24.1885 69.0475 23.4685 68.1835 21.9645 68.1835C20.5245 68.1835 19.7405 68.9355 19.7405 69.9755C19.7405 71.4155 20.8765 71.5755 23.0685 72.2155C25.4365 72.8715 26.2685 73.8315 26.2685 75.6235C26.2685 77.8475 24.5085 79.1115 21.9645 79.1115C19.3405 79.1115 17.6765 77.7675 17.6765 75.1115H19.5645C19.5645 76.9355 20.5405 77.7995 22.0445 77.7995C23.4205 77.7995 24.4605 77.0955 24.4605 75.7995C24.4605 74.7595 23.8045 74.2635 22.7165 73.9595ZM16.1937 111.127H18.7537L22.0177 120.615C23.0897 117.447 24.1457 114.279 25.2177 111.127H27.7617V122.855H26.1137V113.095L22.8017 122.855H21.1057L17.8097 113.127V122.855H16.1937V111.127ZM19.2171 155.127H20.9771V165.431H25.7611V166.855H19.2171V155.127ZM16.8866 204.695L13.4946 199.127H15.5266C15.8946 199.799 17.5106 202.455 17.8946 203.127L20.2306 199.127H22.1666C21.6386 200.039 19.3826 203.735 18.8546 204.663L22.6626 210.855H20.5826C20.1666 210.087 18.2946 207.015 17.8626 206.247C17.4466 207.015 15.5906 210.087 15.1746 210.855H13.1906L16.8866 204.695ZM24.4437 199.127H26.2037V209.431H30.9877V210.855H24.4437V199.127Z" fill="black"/>
<path d="M241.034 23.1275H242.794V27.9115H247.77V23.1275H249.546V34.8555H247.77V29.4475H242.778V34.8555H241.034V23.1275ZM252.096 23.1275H253.856V34.8555H252.096V23.1275ZM256.361 23.1275H259.865C262.361 23.1275 263.961 24.2155 263.961 26.6635C263.961 29.1115 262.425 30.2955 259.817 30.2955H258.137V34.8555H256.361V23.1275ZM258.121 24.4875V28.9035H259.529C260.985 28.9035 262.137 28.4395 262.137 26.6795C262.137 24.8395 260.841 24.4875 259.401 24.4875H258.121Z" fill="#A8A8A8"/>
<path d="M246.142 77.4315H250.686V78.8555H244.03C244.222 74.5035 249.054 73.8635 249.054 70.6795C249.054 69.8635 248.574 68.7115 247.358 68.7115C246.174 68.7115 245.694 69.6235 245.694 71.1595C245.134 71.1595 244.59 71.1435 244.03 71.1435V70.7115C244.03 68.7115 245.342 67.4635 247.438 67.4635C249.438 67.4635 250.798 68.7755 250.798 70.6795C250.798 72.4715 249.646 73.7355 248.174 74.9995L247.358 75.6715C246.686 76.2955 246.238 76.8395 246.142 77.4315ZM252.467 73.3035C252.467 69.9915 253.635 67.4795 256.307 67.4795C259.123 67.4795 260.179 69.8475 260.179 73.3035C260.179 76.6155 259.043 79.1115 256.307 79.1115C253.331 79.1115 252.467 76.3755 252.467 73.3035ZM254.243 73.3515C254.243 75.9595 254.787 77.8155 256.307 77.8155C257.939 77.8155 258.419 75.5755 258.419 73.3195C258.419 70.6955 257.891 68.7915 256.323 68.7915C254.851 68.7915 254.243 70.6155 254.243 73.3515ZM247.08 121.431H251.624V122.855H244.968C245.16 118.503 249.992 117.863 249.992 114.679C249.992 113.863 249.512 112.711 248.296 112.711C247.112 112.711 246.632 113.623 246.632 115.159C246.072 115.159 245.528 115.143 244.968 115.143V114.711C244.968 112.711 246.28 111.463 248.376 111.463C250.376 111.463 251.736 112.775 251.736 114.679C251.736 116.471 250.584 117.735 249.112 118.999L248.296 119.671C247.624 120.295 247.176 120.839 247.08 121.431ZM257.581 111.671V122.855H255.949V114.183C255.565 114.695 254.381 115.463 253.693 115.575V113.975C254.797 113.607 255.853 112.759 256.381 111.671H257.581ZM246.548 165.431H251.092V166.855H244.436C244.628 162.503 249.46 161.863 249.46 158.679C249.46 157.863 248.98 156.711 247.764 156.711C246.58 156.711 246.1 157.623 246.1 159.159C245.54 159.159 244.996 159.143 244.436 159.143V158.711C244.436 156.711 245.748 155.463 247.844 155.463C249.844 155.463 251.204 156.775 251.204 158.679C251.204 160.471 250.052 161.735 248.58 162.999L247.764 163.671C247.092 164.295 246.644 164.839 246.548 165.431ZM255.001 165.431H259.545V166.855H252.889C253.081 162.503 257.913 161.863 257.913 158.679C257.913 157.863 257.433 156.711 256.217 156.711C255.033 156.711 254.553 157.623 254.553 159.159C253.993 159.159 253.449 159.143 252.889 159.143V158.711C252.889 156.711 254.201 155.463 256.297 155.463C258.297 155.463 259.657 156.775 259.657 158.679C259.657 160.471 258.505 161.735 257.033 162.999L256.217 163.671C255.545 164.295 255.097 164.839 255.001 165.431ZM246.455 209.431H250.999V210.855H244.343C244.535 206.503 249.367 205.863 249.367 202.679C249.367 201.863 248.887 200.711 247.671 200.711C246.487 200.711 246.007 201.623 246.007 203.159C245.447 203.159 244.903 203.143 244.343 203.143V202.711C244.343 200.711 245.655 199.463 247.751 199.463C249.751 199.463 251.111 200.775 251.111 202.679C251.111 204.471 249.959 205.735 248.487 206.999L247.671 207.671C246.999 208.295 246.551 208.839 246.455 209.431ZM255.308 205.687V204.407H255.836C257.084 204.407 257.884 203.959 257.884 202.519C257.884 201.527 257.324 200.695 256.252 200.695C255.132 200.695 254.636 201.511 254.636 202.407V202.711H252.908C252.908 201.271 253.596 199.479 256.284 199.479H256.364C258.092 199.495 259.596 200.583 259.596 202.471C259.596 203.335 259.26 204.519 257.964 205.031C259.116 205.351 259.804 206.327 259.804 207.735C259.804 209.063 259.1 211.111 256.14 211.111C253.74 211.111 252.7 209.671 252.7 207.799H254.444C254.444 209.127 255.116 209.879 256.156 209.879C257.34 209.879 258.012 209.239 258.012 207.719C258.012 206.167 257.388 205.687 255.884 205.687H255.308ZM246.408 253.431H250.952V254.855H244.296C244.488 250.503 249.32 249.863 249.32 246.679C249.32 245.863 248.84 244.711 247.624 244.711C246.44 244.711 245.96 245.623 245.96 247.159C245.4 247.159 244.856 247.143 244.296 247.143V246.711C244.296 244.711 245.608 243.463 247.704 243.463C249.704 243.463 251.064 244.775 251.064 246.679C251.064 248.471 249.912 249.735 248.44 250.999L247.624 251.671C246.952 252.295 246.504 252.839 246.408 253.431ZM252.477 250.823L256.525 243.639H258.669V250.791H260.221V252.183H258.653V254.855H257.053V252.183H252.477V250.823ZM254.013 250.807H257.053V245.255L254.013 250.807Z" fill="black"/>
<path d="M114.785 23.1275C115.489 26.2155 116.177 29.3195 116.865 32.4075C117.697 29.3035 118.497 26.2315 119.313 23.1275H121.009L123.393 32.3915C124.081 29.3035 124.801 26.2155 125.489 23.1275H127.185L124.305 34.8555H122.513L120.113 25.7355C119.345 28.7755 118.545 31.8155 117.761 34.8555H115.873L112.977 23.1275H114.785ZM133.134 24.9515L131.214 30.5515H134.958L133.134 24.9515ZM136.366 34.8555L135.406 31.9915H130.718C130.382 32.9515 130.062 33.9115 129.726 34.8555H127.87L132.174 23.1275H134.238C135.566 27.0475 136.91 30.9355 138.238 34.8555H136.366ZM139.938 23.1275H141.698V34.8555H139.938V23.1275ZM148.859 29.9595L147.323 29.5275C145.419 28.9515 144.075 28.1355 144.075 26.2475C144.075 23.9435 145.995 22.8555 148.155 22.8555C150.635 22.8555 152.187 24.1835 152.187 26.5675H150.331C150.331 25.0475 149.611 24.1835 148.107 24.1835C146.667 24.1835 145.883 24.9355 145.883 25.9755C145.883 27.4155 147.019 27.5755 149.211 28.2155C151.579 28.8715 152.411 29.8315 152.411 31.6235C152.411 33.8475 150.651 35.1115 148.107 35.1115C145.483 35.1115 143.819 33.7675 143.819 31.1115H145.707C145.707 32.9355 146.683 33.7995 148.187 33.7995C149.563 33.7995 150.603 33.0955 150.603 31.7995C150.603 30.7595 149.947 30.2635 148.859 29.9595ZM153.49 23.1275H161.25V24.5355H158.242V34.8555H156.482V24.5355H153.49V23.1275Z" fill="#A8A8A8"/>
<path d="M131.4 73.6875V72.4075H131.928C133.176 72.4075 133.976 71.9595 133.976 70.5195C133.976 69.5275 133.416 68.6955 132.344 68.6955C131.224 68.6955 130.728 69.5115 130.728 70.4075V70.7115H129C129 69.2715 129.688 67.4795 132.376 67.4795H132.456C134.184 67.4955 135.688 68.5835 135.688 70.4715C135.688 71.3355 135.352 72.5195 134.056 73.0315C135.208 73.3515 135.896 74.3275 135.896 75.7355C135.896 77.0635 135.192 79.1115 132.232 79.1115C129.832 79.1115 128.792 77.6715 128.792 75.7995H130.536C130.536 77.1275 131.208 77.8795 132.248 77.8795C133.432 77.8795 134.104 77.2395 134.104 75.7195C134.104 74.1675 133.48 73.6875 131.976 73.6875H131.4ZM137.512 73.3035C137.512 69.9915 138.68 67.4795 141.352 67.4795C144.168 67.4795 145.224 69.8475 145.224 73.3035C145.224 76.6155 144.088 79.1115 141.352 79.1115C138.376 79.1115 137.512 76.3755 137.512 73.3035ZM139.288 73.3515C139.288 75.9595 139.832 77.8155 141.352 77.8155C142.984 77.8155 143.464 75.5755 143.464 73.3195C143.464 70.6955 142.936 68.7915 141.368 68.7915C139.896 68.7915 139.288 70.6155 139.288 73.3515ZM131.806 117.687V116.407H132.334C133.582 116.407 134.382 115.959 134.382 114.519C134.382 113.527 133.822 112.695 132.75 112.695C131.63 112.695 131.134 113.511 131.134 114.407V114.711H129.406C129.406 113.271 130.094 111.479 132.782 111.479H132.862C134.59 111.495 136.094 112.583 136.094 114.471C136.094 115.335 135.758 116.519 134.462 117.031C135.614 117.351 136.302 118.327 136.302 119.735C136.302 121.063 135.598 123.111 132.638 123.111C130.238 123.111 129.198 121.671 129.198 119.799H130.942C130.942 121.127 131.614 121.879 132.654 121.879C133.838 121.879 134.51 121.239 134.51 119.719C134.51 118.167 133.886 117.687 132.382 117.687H131.806ZM140.046 121.431H144.59V122.855H137.934C138.126 118.503 142.958 117.863 142.958 114.679C142.958 113.863 142.478 112.711 141.262 112.711C140.078 112.711 139.598 113.623 139.598 115.159C139.038 115.159 138.494 115.143 137.934 115.143V114.711C137.934 112.711 139.246 111.463 141.342 111.463C143.342 111.463 144.702 112.775 144.702 114.679C144.702 116.471 143.55 117.735 142.078 118.999L141.262 119.671C140.59 120.295 140.142 120.839 140.046 121.431ZM131.665 161.687V160.407H132.193C133.441 160.407 134.241 159.959 134.241 158.519C134.241 157.527 133.681 156.695 132.609 156.695C131.489 156.695 130.993 157.511 130.993 158.407V158.711H129.265C129.265 157.271 129.953 155.479 132.641 155.479H132.721C134.449 155.495 135.953 156.583 135.953 158.471C135.953 159.335 135.617 160.519 134.321 161.031C135.473 161.351 136.161 162.327 136.161 163.735C136.161 165.063 135.457 167.111 132.497 167.111C130.097 167.111 129.057 165.671 129.057 163.799H130.801C130.801 165.127 131.473 165.879 132.513 165.879C133.697 165.879 134.369 165.239 134.369 163.719C134.369 162.167 133.745 161.687 132.241 161.687H131.665ZM137.522 162.823L141.57 155.639H143.714V162.791H145.266V164.183H143.698V166.855H142.098V164.183H137.522V162.823ZM139.058 162.807H142.098V157.255L139.058 162.807ZM131.509 205.687V204.407H132.037C133.285 204.407 134.085 203.959 134.085 202.519C134.085 201.527 133.525 200.695 132.453 200.695C131.333 200.695 130.837 201.511 130.837 202.407V202.711H129.109C129.109 201.271 129.797 199.479 132.485 199.479H132.565C134.293 199.495 135.797 200.583 135.797 202.471C135.797 203.335 135.461 204.519 134.165 205.031C135.317 205.351 136.005 206.327 136.005 207.735C136.005 209.063 135.301 211.111 132.341 211.111C129.941 211.111 128.901 209.671 128.901 207.799H130.645C130.645 209.127 131.317 209.879 132.357 209.879C133.541 209.879 134.213 209.239 134.213 207.719C134.213 206.167 133.589 205.687 132.085 205.687H131.509ZM144.998 202.359H143.382C143.286 201.463 142.758 200.759 141.734 200.759C139.926 200.759 139.51 203.127 139.43 205.015C139.814 204.311 140.726 203.655 141.958 203.655C143.494 203.655 145.158 204.631 145.158 207.223C145.158 208.935 144.214 211.079 141.478 211.079C138.838 211.079 137.75 209.127 137.75 205.735C137.75 201.431 139.222 199.479 141.718 199.479C143.926 199.479 144.854 200.919 144.998 202.359ZM141.494 204.935C140.214 204.935 139.542 205.943 139.542 207.399C139.542 208.631 140.15 209.799 141.494 209.799C142.518 209.799 143.446 208.935 143.446 207.367C143.446 206.151 142.854 204.935 141.494 204.935ZM131.571 249.687V248.407H132.099C133.347 248.407 134.147 247.959 134.147 246.519C134.147 245.527 133.587 244.695 132.515 244.695C131.395 244.695 130.899 245.511 130.899 246.407V246.711H129.171C129.171 245.271 129.859 243.479 132.547 243.479H132.627C134.355 243.495 135.859 244.583 135.859 246.471C135.859 247.335 135.523 248.519 134.227 249.031C135.379 249.351 136.067 250.327 136.067 251.735C136.067 253.063 135.363 255.111 132.403 255.111C130.003 255.111 128.963 253.671 128.963 251.799H130.707C130.707 253.127 131.379 253.879 132.419 253.879C133.603 253.879 134.275 253.239 134.275 251.719C134.275 250.167 133.651 249.687 132.147 249.687H131.571ZM141.268 255.095C139.412 255.079 137.588 254.055 137.588 251.815C137.588 250.423 138.42 249.351 139.476 249.031C138.484 248.599 137.828 247.639 137.828 246.487C137.828 244.551 139.396 243.479 141.332 243.479C143.252 243.479 144.82 244.551 144.82 246.487C144.82 247.639 144.164 248.599 143.172 249.031C144.26 249.351 145.076 250.423 145.076 251.815C145.076 254.151 143.092 255.095 141.332 255.095H141.268ZM141.332 244.743C140.308 244.743 139.524 245.367 139.524 246.599C139.524 247.783 140.356 248.471 141.332 248.471C142.292 248.471 143.14 247.783 143.14 246.599C143.14 245.335 142.34 244.743 141.332 244.743ZM141.332 249.655C140.084 249.655 139.268 250.535 139.268 251.751C139.268 253.111 140.164 253.847 141.332 253.847C142.516 253.847 143.38 253.111 143.38 251.751C143.38 250.551 142.58 249.655 141.332 249.655Z" fill="black"/>
<path d="M331.542 23.1275V24.5195H326.454V28.0235H331.03V29.4315H326.454V34.8555H324.694V23.1275H331.542ZM335.017 24.4715V28.3435H336.777C338.025 28.3435 338.985 27.7355 338.985 26.3915C338.985 25.0315 338.137 24.4715 336.985 24.4715H335.017ZM333.241 23.1275H337.385C339.705 23.1275 340.793 24.5675 340.793 26.1515C340.793 27.6395 339.801 28.6155 338.777 28.9515C339.897 29.1435 340.553 29.8635 340.553 31.3035V32.9835C340.553 33.7195 340.681 34.3915 340.937 34.8555H339.097C338.873 34.5515 338.777 33.9755 338.777 33.2075V31.3835C338.777 30.0875 338.169 29.7035 337.097 29.7035H335.001V34.8555H333.241V23.1275ZM347.665 35.1115C344.529 35.1115 342.465 32.9195 342.465 28.9355C342.465 25.0635 344.609 22.8715 347.665 22.8715C350.689 22.8715 352.849 25.0635 352.849 28.9355C352.849 32.9195 350.785 35.1115 347.665 35.1115ZM347.665 33.7835C349.713 33.7835 350.977 32.1035 350.977 28.9515C350.977 25.8635 349.681 24.2315 347.665 24.2315C345.633 24.2315 344.353 25.8635 344.353 28.9515C344.353 32.1035 345.585 33.7835 347.665 33.7835ZM354.944 23.1275H357.072C358.816 26.1675 360.56 29.2075 362.32 32.2475V23.1275H363.92V34.8555H361.856C360.08 31.7835 358.32 28.6955 356.544 25.6075V34.8555H354.944V23.1275ZM365.339 23.1275H373.099V24.5355H370.091V34.8555H368.331V24.5355H365.339V23.1275ZM380.47 24.4715V28.3435H382.23C383.478 28.3435 384.438 27.7355 384.438 26.3915C384.438 25.0315 383.59 24.4715 382.438 24.4715H380.47ZM378.694 23.1275H382.838C385.158 23.1275 386.246 24.5675 386.246 26.1515C386.246 27.6395 385.254 28.6155 384.23 28.9515C385.35 29.1435 386.006 29.8635 386.006 31.3035V32.9835C386.006 33.7195 386.134 34.3915 386.39 34.8555H384.55C384.326 34.5515 384.23 33.9755 384.23 33.2075V31.3835C384.23 30.0875 383.622 29.7035 382.55 29.7035H380.454V34.8555H378.694V23.1275ZM388.35 23.1275H390.11V34.8555H388.35V23.1275ZM397.271 29.9595L395.735 29.5275C393.831 28.9515 392.487 28.1355 392.487 26.2475C392.487 23.9435 394.407 22.8555 396.567 22.8555C399.047 22.8555 400.599 24.1835 400.599 26.5675H398.743C398.743 25.0475 398.023 24.1835 396.519 24.1835C395.079 24.1835 394.295 24.9355 394.295 25.9755C394.295 27.4155 395.431 27.5755 397.623 28.2155C399.991 28.8715 400.823 29.8315 400.823 31.6235C400.823 33.8475 399.063 35.1115 396.519 35.1115C393.895 35.1115 392.231 33.7675 392.231 31.1115H394.119C394.119 32.9355 395.095 33.7995 396.599 33.7995C397.975 33.7995 399.015 33.0955 399.015 31.7995C399.015 30.7595 398.359 30.2635 397.271 29.9595ZM403.022 23.1275H409.918V24.4875H404.798V28.0075H409.294V29.3835H404.798V33.4955H410.046V34.8555H403.022V23.1275Z" fill="#A8A8A8"/>
<path d="M357.671 67.6715V78.8555H356.039V70.1835C355.655 70.6955 354.471 71.4635 353.783 71.5755V69.9755C354.887 69.6075 355.943 68.7595 356.471 67.6715H357.671ZM360.885 73.3035C360.885 69.9915 362.053 67.4795 364.725 67.4795C367.541 67.4795 368.597 69.8475 368.597 73.3035C368.597 76.6155 367.461 79.1115 364.725 79.1115C361.749 79.1115 360.885 76.3755 360.885 73.3035ZM362.661 73.3515C362.661 75.9595 363.205 77.8155 364.725 77.8155C366.357 77.8155 366.837 75.5755 366.837 73.3195C366.837 70.6955 366.309 68.7915 364.741 68.7915C363.269 68.7915 362.661 70.6155 362.661 73.3515ZM372.167 78.8555H370.151V76.7915H372.167V78.8555ZM375.601 73.5435H374.225L374.353 67.6875H380.465V69.0795H375.825L375.761 71.9755C376.113 71.6555 376.721 71.2875 377.601 71.2875C379.521 71.2875 380.689 72.7275 380.689 75.1595C380.689 77.3195 379.729 79.0955 377.089 79.0955C374.881 79.0955 373.713 77.6875 373.713 75.8795H375.377C375.377 76.9675 375.889 77.8955 377.105 77.8955C378.513 77.8955 378.929 76.5995 378.929 75.1275C378.929 73.7995 378.385 72.5675 377.121 72.5675C376.273 72.5675 375.793 73.0475 375.601 73.5435ZM364.71 111.671V122.855H363.078V114.183C362.694 114.695 361.51 115.463 360.822 115.575V113.975C361.926 113.607 362.982 112.759 363.51 111.671H364.71ZM372.1 111.671V122.855H370.468V114.183C370.084 114.695 368.9 115.463 368.212 115.575V113.975C369.316 113.607 370.372 112.759 370.9 111.671H372.1ZM358.608 155.671V166.855H356.976V158.183C356.592 158.695 355.408 159.463 354.72 159.575V157.975C355.824 157.607 356.88 156.759 357.408 155.671H358.608ZM365.999 155.671V166.855H364.367V158.183C363.983 158.695 362.799 159.463 362.111 159.575V157.975C363.215 157.607 364.271 156.759 364.799 155.671H365.999ZM371.229 166.855H369.213V164.791H371.229V166.855ZM374.664 161.543H373.288L373.416 155.687H379.528V157.079H374.888L374.824 159.975C375.176 159.655 375.784 159.287 376.664 159.287C378.584 159.287 379.752 160.727 379.752 163.159C379.752 165.319 378.792 167.095 376.152 167.095C373.944 167.095 372.776 165.687 372.776 163.879H374.44C374.44 164.967 374.952 165.895 376.168 165.895C377.576 165.895 377.992 164.599 377.992 163.127C377.992 161.799 377.448 160.567 376.184 160.567C375.336 160.567 374.856 161.047 374.664 161.543ZM364.178 199.671V210.855H362.546V202.183C362.162 202.695 360.978 203.463 360.29 203.575V201.975C361.394 201.607 362.45 200.759 362.978 199.671H364.178ZM369.521 209.431H374.065V210.855H367.409C367.601 206.503 372.433 205.863 372.433 202.679C372.433 201.863 371.953 200.711 370.737 200.711C369.553 200.711 369.073 201.623 369.073 203.159C368.513 203.159 367.969 203.143 367.409 203.143V202.711C367.409 200.711 368.721 199.463 370.817 199.463C372.817 199.463 374.177 200.775 374.177 202.679C374.177 204.471 373.025 205.735 371.553 206.999L370.737 207.671C370.065 208.295 369.617 208.839 369.521 209.431ZM358.077 243.671V254.855H356.445V246.183C356.061 246.695 354.877 247.463 354.189 247.575V245.975C355.293 245.607 356.349 244.759 356.877 243.671H358.077ZM363.419 253.431H367.963V254.855H361.307C361.499 250.503 366.331 249.863 366.331 246.679C366.331 245.863 365.851 244.711 364.635 244.711C363.451 244.711 362.971 245.623 362.971 247.159C362.411 247.159 361.867 247.143 361.307 247.143V246.711C361.307 244.711 362.619 243.463 364.715 243.463C366.715 243.463 368.075 244.775 368.075 246.679C368.075 248.471 366.923 249.735 365.451 250.999L364.635 251.671C363.963 252.295 363.515 252.839 363.419 253.431ZM371.761 254.855H369.745V252.791H371.761V254.855ZM375.195 249.543H373.819L373.947 243.687H380.059V245.079H375.419L375.355 247.975C375.707 247.655 376.315 247.287 377.195 247.287C379.115 247.287 380.283 248.727 380.283 251.159C380.283 253.319 379.323 255.095 376.683 255.095C374.475 255.095 373.307 253.687 373.307 251.879H374.971C374.971 252.967 375.483 253.895 376.699 253.895C378.107 253.895 378.523 252.599 378.523 251.127C378.523 249.799 377.979 248.567 376.715 248.567C375.867 248.567 375.387 249.047 375.195 249.543Z" fill="black"/>
<path d="M443.549 23.1275H447.677C449.789 23.1275 451.069 24.1195 451.069 26.0235C451.069 27.3035 450.301 28.3435 449.197 28.6795C450.557 28.9675 451.549 29.9915 451.549 31.4635C451.549 33.6235 450.253 34.8555 447.549 34.8555H443.549V23.1275ZM445.325 24.4555V28.1035H447.325C448.413 28.1035 449.293 27.3995 449.293 26.2155C449.293 24.4555 447.741 24.4555 446.445 24.4555H445.325ZM445.309 29.4475V33.4955H447.069C448.845 33.4955 449.725 32.9515 449.725 31.3995C449.725 29.8795 448.733 29.4475 447.133 29.4475H445.309ZM457.839 24.9515L455.919 30.5515H459.663L457.839 24.9515ZM461.071 34.8555L460.111 31.9915H455.423C455.087 32.9515 454.767 33.9115 454.431 34.8555H452.575L456.879 23.1275H458.943C460.271 27.0475 461.615 30.9355 462.943 34.8555H461.071ZM473.603 26.5035H471.811C471.715 24.9835 470.771 24.1995 469.315 24.1995C467.459 24.1995 466.147 25.8475 466.147 29.2235C466.147 31.8475 467.171 33.7995 469.331 33.7995C470.803 33.7995 471.827 32.8555 471.875 31.1115H473.715C473.651 33.5595 471.971 35.1275 469.299 35.1275C465.923 35.1275 464.243 32.8715 464.243 28.9355C464.243 25.0155 466.323 22.8555 469.299 22.8555C471.619 22.8555 473.523 24.0875 473.603 26.5035ZM475.674 23.1275H477.434V28.7915C478.938 26.9035 480.442 25.0155 481.93 23.1275H484.074L480.138 27.8955L484.218 34.8555H482.154L478.986 29.2075C478.458 29.8315 477.962 30.4715 477.434 31.0955V34.8555H475.674V23.1275ZM491.716 24.4715V28.3435H493.476C494.724 28.3435 495.684 27.7355 495.684 26.3915C495.684 25.0315 494.836 24.4715 493.684 24.4715H491.716ZM489.94 23.1275H494.084C496.404 23.1275 497.492 24.5675 497.492 26.1515C497.492 27.6395 496.5 28.6155 495.476 28.9515C496.596 29.1435 497.252 29.8635 497.252 31.3035V32.9835C497.252 33.7195 497.38 34.3915 497.636 34.8555H495.796C495.572 34.5515 495.476 33.9755 495.476 33.2075V31.3835C495.476 30.0875 494.868 29.7035 493.796 29.7035H491.7V34.8555H489.94V23.1275ZM499.596 23.1275H501.356V34.8555H499.596V23.1275ZM508.517 29.9595L506.981 29.5275C505.077 28.9515 503.733 28.1355 503.733 26.2475C503.733 23.9435 505.653 22.8555 507.813 22.8555C510.293 22.8555 511.845 24.1835 511.845 26.5675H509.989C509.989 25.0475 509.269 24.1835 507.765 24.1835C506.325 24.1835 505.541 24.9355 505.541 25.9755C505.541 27.4155 506.677 27.5755 508.869 28.2155C511.237 28.8715 512.069 29.8315 512.069 31.6235C512.069 33.8475 510.309 35.1115 507.765 35.1115C505.141 35.1115 503.477 33.7675 503.477 31.1115H505.365C505.365 32.9355 506.341 33.7995 507.845 33.7995C509.221 33.7995 510.261 33.0955 510.261 31.7995C510.261 30.7595 509.605 30.2635 508.517 29.9595ZM514.268 23.1275H521.164V24.4875H516.044V28.0075H520.54V29.3835H516.044V33.4955H521.292V34.8555H514.268V23.1275Z" fill="#A8A8A8"/>
<path d="M479.268 67.6715V78.8555H477.636V70.1835C477.252 70.6955 476.068 71.4635 475.38 71.5755V69.9755C476.484 69.6075 477.54 68.7595 478.068 67.6715H479.268ZM482.259 67.6555H489.491V68.9355C487.779 72.1675 486.355 75.4955 485.379 78.8555H483.587C484.691 75.1275 486.355 71.8155 487.891 69.0795H482.259V67.6555ZM473.167 111.671V122.855H471.535V114.183C471.151 114.695 469.967 115.463 469.279 115.575V113.975C470.383 113.607 471.439 112.759 471.967 111.671H473.167ZM476.157 111.655H483.389V112.935C481.677 116.167 480.253 119.495 479.277 122.855H477.485C478.589 119.127 480.253 115.815 481.789 113.079H476.157V111.655ZM486.772 122.855H484.756V120.791H486.772V122.855ZM490.207 117.543H488.831L488.959 111.687H495.071V113.079H490.431L490.367 115.975C490.719 115.655 491.327 115.287 492.207 115.287C494.127 115.287 495.295 116.727 495.295 119.159C495.295 121.319 494.335 123.095 491.695 123.095C489.487 123.095 488.319 121.687 488.319 119.879H489.983C489.983 120.967 490.495 121.895 491.711 121.895C493.119 121.895 493.535 120.599 493.535 119.127C493.535 117.799 492.991 116.567 491.727 116.567C490.879 116.567 490.399 117.047 490.207 117.543ZM478.995 155.671V166.855H477.363V158.183C476.979 158.695 475.795 159.463 475.107 159.575V157.975C476.211 157.607 477.267 156.759 477.795 155.671H478.995ZM485.793 167.095C483.937 167.079 482.113 166.055 482.113 163.815C482.113 162.423 482.945 161.351 484.001 161.031C483.009 160.599 482.353 159.639 482.353 158.487C482.353 156.551 483.921 155.479 485.857 155.479C487.777 155.479 489.345 156.551 489.345 158.487C489.345 159.639 488.689 160.599 487.697 161.031C488.785 161.351 489.601 162.423 489.601 163.815C489.601 166.151 487.617 167.095 485.857 167.095H485.793ZM485.857 156.743C484.833 156.743 484.049 157.367 484.049 158.599C484.049 159.783 484.881 160.471 485.857 160.471C486.817 160.471 487.665 159.783 487.665 158.599C487.665 157.335 486.865 156.743 485.857 156.743ZM485.857 161.655C484.609 161.655 483.793 162.535 483.793 163.751C483.793 165.111 484.689 165.847 485.857 165.847C487.041 165.847 487.905 165.111 487.905 163.751C487.905 162.551 487.105 161.655 485.857 161.655ZM472.893 199.671V210.855H471.261V202.183C470.877 202.695 469.693 203.463 469.005 203.575V201.975C470.109 201.607 471.165 200.759 471.693 199.671H472.893ZM479.692 211.095C477.836 211.079 476.012 210.055 476.012 207.815C476.012 206.423 476.844 205.351 477.9 205.031C476.908 204.599 476.252 203.639 476.252 202.487C476.252 200.551 477.82 199.479 479.756 199.479C481.676 199.479 483.244 200.551 483.244 202.487C483.244 203.639 482.588 204.599 481.596 205.031C482.684 205.351 483.5 206.423 483.5 207.815C483.5 210.151 481.516 211.095 479.756 211.095H479.692ZM479.756 200.743C478.732 200.743 477.948 201.367 477.948 202.599C477.948 203.783 478.78 204.471 479.756 204.471C480.716 204.471 481.564 203.783 481.564 202.599C481.564 201.335 480.764 200.743 479.756 200.743ZM479.756 205.655C478.508 205.655 477.692 206.535 477.692 207.751C477.692 209.111 478.588 209.847 479.756 209.847C480.94 209.847 481.804 209.111 481.804 207.751C481.804 206.551 481.004 205.655 479.756 205.655ZM487.046 210.855H485.03V208.791H487.046V210.855ZM490.48 205.543H489.104L489.232 199.687H495.344V201.079H490.704L490.64 203.975C490.992 203.655 491.6 203.287 492.48 203.287C494.4 203.287 495.568 204.727 495.568 207.159C495.568 209.319 494.608 211.095 491.968 211.095C489.76 211.095 488.592 209.687 488.592 207.879H490.256C490.256 208.967 490.768 209.895 491.984 209.895C493.392 209.895 493.808 208.599 493.808 207.127C493.808 205.799 493.264 204.567 492 204.567C491.152 204.567 490.672 205.047 490.48 205.543ZM478.932 243.671V254.855H477.3V246.183C476.916 246.695 475.732 247.463 475.044 247.575V245.975C476.148 245.607 477.204 244.759 477.732 243.671H478.932ZM485.747 244.791C484.579 244.791 483.811 245.751 483.811 247.223C483.811 248.775 484.723 249.543 485.747 249.543C487.011 249.543 487.731 248.503 487.731 247.207C487.731 245.831 486.947 244.791 485.747 244.791ZM482.339 252.135H483.955C483.987 253.015 484.611 253.831 485.667 253.831C487.491 253.831 487.843 251.623 487.843 249.575C487.475 250.391 486.643 250.919 485.443 250.919C483.763 250.919 482.115 249.671 482.115 247.271C482.115 244.951 483.635 243.463 485.763 243.463C487.939 243.463 489.523 244.919 489.523 248.887C489.523 252.583 488.675 255.095 485.603 255.095C483.491 255.095 482.371 253.559 482.339 252.135Z" fill="black"/>
<path d="M568.207 1.23489H569.967V12.9629H568.207V1.23489ZM572.489 1.23489H574.617C576.361 4.27489 578.105 7.31489 579.865 10.3549V1.23489H581.465V12.9629H579.401C577.625 9.89089 575.865 6.80289 574.089 3.71489V12.9629H572.489V1.23489ZM588.644 8.06689L587.108 7.63489C585.204 7.05889 583.86 6.24289 583.86 4.35489C583.86 2.05089 585.78 0.96289 587.94 0.96289C590.42 0.96289 591.972 2.29089 591.972 4.67489H590.116C590.116 3.15489 589.396 2.29089 587.892 2.29089C586.452 2.29089 585.668 3.04289 585.668 4.08289C585.668 5.52289 586.804 5.68289 588.996 6.32289C591.364 6.97889 592.196 7.93889 592.196 9.73089C592.196 11.9549 590.436 13.2189 587.892 13.2189C585.268 13.2189 583.604 11.8749 583.604 9.21889H585.492C585.492 11.0429 586.468 11.9069 587.972 11.9069C589.348 11.9069 590.388 11.2029 590.388 9.90689C590.388 8.86689 589.732 8.37089 588.644 8.06689ZM594.395 1.23489H601.291V2.59489H596.171V6.11489H600.667V7.49089H596.171V11.6029H601.419V12.9629H594.395V1.23489ZM607.872 3.05889L605.952 8.65889H609.696L607.872 3.05889ZM611.104 12.9629L610.144 10.0989H605.456C605.12 11.0589 604.8 12.0189 604.464 12.9629H602.608L606.912 1.23489H608.976C610.304 5.15489 611.648 9.04289 612.976 12.9629H611.104ZM614.676 1.23489H617.236L620.5 10.7229C621.572 7.55489 622.628 4.38689 623.7 1.23489H626.244V12.9629H624.596V3.20289L621.284 12.9629H619.588L616.292 3.23489V12.9629H614.676V1.23489ZM568.793 22.2349H570.553V32.5389H575.337V33.9629H568.793V22.2349ZM576.903 22.2349H583.799V23.5949H578.679V27.1149H583.175V28.4909H578.679V32.6029H583.927V33.9629H576.903V22.2349ZM586.028 22.2349H588.156C589.9 25.2749 591.644 28.3149 593.404 31.3549V22.2349H595.004V33.9629H592.94C591.164 30.8909 589.404 27.8029 587.628 24.7149V33.9629H586.028V22.2349ZM606.663 25.6269H604.823C604.759 24.2189 603.943 23.2749 602.295 23.2749C600.263 23.2749 598.983 24.7629 598.983 28.1389C598.983 31.1469 600.151 32.9869 602.087 32.9869C603.847 32.9869 604.983 31.6909 605.015 29.6109H602.823V28.2989H606.663V33.9629H605.495L605.399 32.2189C604.935 33.4349 603.591 34.2669 601.911 34.2669C598.935 34.2669 597.063 32.0269 597.063 28.2029C597.063 24.4269 598.967 21.9789 602.359 21.9789C604.967 21.9789 606.583 23.4989 606.663 25.6269ZM607.986 22.2349H615.746V23.6429H612.738V33.9629H610.978V23.6429H607.986V22.2349ZM617.184 22.2349H618.944V27.0189H623.92V22.2349H625.696V33.9629H623.92V28.5549H618.928V33.9629H617.184V22.2349Z" fill="#A8A8A8"/>
<path d="M585.903 72.7949V71.5149H586.431C587.679 71.5149 588.479 71.0669 588.479 69.6269C588.479 68.6349 587.919 67.8029 586.847 67.8029C585.727 67.8029 585.231 68.6189 585.231 69.5149V69.8189H583.503C583.503 68.3789 584.191 66.5869 586.879 66.5869H586.959C588.687 66.6029 590.191 67.6909 590.191 69.5789C590.191 70.4429 589.855 71.6269 588.559 72.1389C589.711 72.4589 590.399 73.4349 590.399 74.8429C590.399 76.1709 589.695 78.2189 586.735 78.2189C584.335 78.2189 583.295 76.7789 583.295 74.9069H585.039C585.039 76.2349 585.711 76.9869 586.751 76.9869C587.935 76.9869 588.607 76.3469 588.607 74.8269C588.607 73.2749 587.983 72.7949 586.479 72.7949H585.903ZM594.144 76.5389H598.688V77.9629H592.032C592.224 73.6109 597.056 72.9709 597.056 69.7869C597.056 68.9709 596.576 67.8189 595.36 67.8189C594.176 67.8189 593.696 68.7309 593.696 70.2669C593.136 70.2669 592.592 70.2509 592.032 70.2509V69.8189C592.032 67.8189 593.344 66.5709 595.44 66.5709C597.44 66.5709 598.8 67.8829 598.8 69.7869C598.8 71.5789 597.648 72.8429 596.176 74.1069L595.36 74.7789C594.688 75.4029 594.24 75.9469 594.144 76.5389ZM602.485 77.9629H600.469V75.8989H602.485V77.9629ZM605.92 72.6509H604.544L604.672 66.7949H610.784V68.1869H606.144L606.08 71.0829C606.432 70.7629 607.04 70.3949 607.92 70.3949C609.84 70.3949 611.008 71.8349 611.008 74.2669C611.008 76.4269 610.048 78.2029 607.408 78.2029C605.2 78.2029 604.032 76.7949 604.032 74.9869H605.696C605.696 76.0749 606.208 77.0029 607.424 77.0029C608.832 77.0029 609.248 75.7069 609.248 74.2349C609.248 72.9069 608.704 71.6749 607.44 71.6749C606.592 71.6749 606.112 72.1549 605.92 72.6509ZM591.911 116.795V115.515H592.439C593.687 115.515 594.487 115.067 594.487 113.627C594.487 112.635 593.927 111.803 592.855 111.803C591.735 111.803 591.239 112.619 591.239 113.515V113.819H589.511C589.511 112.379 590.199 110.587 592.887 110.587H592.967C594.695 110.603 596.199 111.691 596.199 113.579C596.199 114.443 595.863 115.627 594.567 116.139C595.719 116.459 596.407 117.435 596.407 118.843C596.407 120.171 595.703 122.219 592.743 122.219C590.343 122.219 589.303 120.779 589.303 118.907H591.047C591.047 120.235 591.719 120.987 592.759 120.987C593.943 120.987 594.615 120.347 594.615 118.827C594.615 117.275 593.991 116.795 592.487 116.795H591.911ZM600.552 116.795V115.515H601.08C602.328 115.515 603.128 115.067 603.128 113.627C603.128 112.635 602.568 111.803 601.496 111.803C600.376 111.803 599.88 112.619 599.88 113.515V113.819H598.152C598.152 112.379 598.84 110.587 601.528 110.587H601.608C603.336 110.603 604.84 111.691 604.84 113.579C604.84 114.443 604.504 115.627 603.208 116.139C604.36 116.459 605.048 117.435 605.048 118.843C605.048 120.171 604.344 122.219 601.384 122.219C598.984 122.219 597.944 120.779 597.944 118.907H599.688C599.688 120.235 600.36 120.987 601.4 120.987C602.584 120.987 603.256 120.347 603.256 118.827C603.256 117.275 602.632 116.795 601.128 116.795H600.552ZM585.81 160.795V159.515H586.338C587.586 159.515 588.386 159.067 588.386 157.627C588.386 156.635 587.826 155.803 586.754 155.803C585.634 155.803 585.138 156.619 585.138 157.515V157.819H583.41C583.41 156.379 584.098 154.587 586.786 154.587H586.866C588.594 154.603 590.098 155.691 590.098 157.579C590.098 158.443 589.762 159.627 588.466 160.139C589.618 160.459 590.306 161.435 590.306 162.843C590.306 164.171 589.602 166.219 586.642 166.219C584.242 166.219 583.202 164.779 583.202 162.907H584.946C584.946 164.235 585.618 164.987 586.658 164.987C587.842 164.987 588.514 164.347 588.514 162.827C588.514 161.275 587.89 160.795 586.386 160.795H585.81ZM594.45 160.795V159.515H594.978C596.226 159.515 597.026 159.067 597.026 157.627C597.026 156.635 596.466 155.803 595.394 155.803C594.274 155.803 593.778 156.619 593.778 157.515V157.819H592.05C592.05 156.379 592.738 154.587 595.426 154.587H595.506C597.234 154.603 598.738 155.691 598.738 157.579C598.738 158.443 598.402 159.627 597.106 160.139C598.258 160.459 598.946 161.435 598.946 162.843C598.946 164.171 598.242 166.219 595.282 166.219C592.882 166.219 591.842 164.779 591.842 162.907H593.586C593.586 164.235 594.258 164.987 595.298 164.987C596.482 164.987 597.154 164.347 597.154 162.827C597.154 161.275 596.53 160.795 595.026 160.795H594.45ZM602.579 165.963H600.563V163.899H602.579V165.963ZM606.013 160.651H604.637L604.765 154.795H610.877V156.187H606.237L606.173 159.083C606.525 158.763 607.133 158.395 608.013 158.395C609.933 158.395 611.101 159.835 611.101 162.267C611.101 164.427 610.141 166.203 607.501 166.203C605.293 166.203 604.125 164.795 604.125 162.987H605.789C605.789 164.075 606.301 165.003 607.517 165.003C608.925 165.003 609.341 163.707 609.341 162.235C609.341 160.907 608.797 159.675 607.533 159.675C606.685 159.675 606.205 160.155 606.013 160.651ZM591.864 204.795V203.515H592.392C593.64 203.515 594.44 203.067 594.44 201.627C594.44 200.635 593.88 199.803 592.808 199.803C591.688 199.803 591.192 200.619 591.192 201.515V201.819H589.464C589.464 200.379 590.152 198.587 592.84 198.587H592.92C594.648 198.603 596.152 199.691 596.152 201.579C596.152 202.443 595.816 203.627 594.52 204.139C595.672 204.459 596.36 205.435 596.36 206.843C596.36 208.171 595.656 210.219 592.696 210.219C590.296 210.219 589.256 208.779 589.256 206.907H591C591 208.235 591.672 208.987 592.712 208.987C593.896 208.987 594.568 208.347 594.568 206.827C594.568 205.275 593.944 204.795 592.44 204.795H591.864ZM597.721 205.931L601.769 198.747H603.913V205.899H605.465V207.291H603.897V209.963H602.297V207.291H597.721V205.931ZM599.257 205.915H602.297V200.363L599.257 205.915ZM585.763 248.795V247.515H586.291C587.539 247.515 588.339 247.067 588.339 245.627C588.339 244.635 587.779 243.803 586.707 243.803C585.587 243.803 585.091 244.619 585.091 245.515V245.819H583.363C583.363 244.379 584.051 242.587 586.739 242.587H586.819C588.547 242.603 590.051 243.691 590.051 245.579C590.051 246.443 589.715 247.627 588.419 248.139C589.571 248.459 590.259 249.435 590.259 250.843C590.259 252.171 589.555 254.219 586.595 254.219C584.195 254.219 583.155 252.779 583.155 250.907H584.899C584.899 252.235 585.571 252.987 586.611 252.987C587.795 252.987 588.467 252.347 588.467 250.827C588.467 249.275 587.843 248.795 586.339 248.795H585.763ZM591.619 249.931L595.667 242.747H597.811V249.899H599.363V251.291H597.795V253.963H596.195V251.291H591.619V249.931ZM593.155 249.915H596.195V244.363L593.155 249.915ZM602.626 253.963H600.61V251.899H602.626V253.963ZM606.06 248.651H604.684L604.812 242.795H610.924V244.187H606.284L606.22 247.083C606.572 246.763 607.18 246.395 608.06 246.395C609.98 246.395 611.148 247.835 611.148 250.267C611.148 252.427 610.188 254.203 607.548 254.203C605.34 254.203 604.172 252.795 604.172 250.987H605.836C605.836 252.075 606.348 253.003 607.564 253.003C608.972 253.003 609.388 251.707 609.388 250.235C609.388 248.907 608.844 247.675 607.58 247.675C606.732 247.675 606.252 248.155 606.06 248.651Z" fill="black"/>
<path d="M699.174 1.23489H700.934V11.5389H705.718V12.9629H699.174V1.23489ZM707.284 1.23489H714.18V2.59489H709.06V6.11489H713.556V7.49089H709.06V11.6029H714.308V12.9629H707.284V1.23489ZM725.529 4.62689H723.689C723.625 3.21889 722.809 2.27489 721.161 2.27489C719.129 2.27489 717.849 3.76289 717.849 7.13889C717.849 10.1469 719.017 11.9869 720.953 11.9869C722.713 11.9869 723.849 10.6909 723.881 8.61089H721.689V7.29889H725.529V12.9629H724.361L724.265 11.2189C723.801 12.4349 722.457 13.2669 720.777 13.2669C717.801 13.2669 715.929 11.0269 715.929 7.20289C715.929 3.42689 717.833 0.97889 721.225 0.97889C723.833 0.97889 725.449 2.49889 725.529 4.62689ZM683.653 34.2189C680.517 34.2189 678.453 32.0269 678.453 28.0429C678.453 24.1709 680.597 21.9789 683.653 21.9789C686.677 21.9789 688.837 24.1709 688.837 28.0429C688.837 32.0269 686.773 34.2189 683.653 34.2189ZM683.653 32.8909C685.701 32.8909 686.965 31.2109 686.965 28.0589C686.965 24.9709 685.669 23.3389 683.653 23.3389C681.621 23.3389 680.341 24.9709 680.341 28.0589C680.341 31.2109 681.573 32.8909 683.653 32.8909ZM690.916 22.2349H694.42C696.916 22.2349 698.516 23.3229 698.516 25.7709C698.516 28.2189 696.98 29.4029 694.372 29.4029H692.692V33.9629H690.916V22.2349ZM692.676 23.5949V28.0109H694.084C695.54 28.0109 696.692 27.5469 696.692 25.7869C696.692 23.9469 695.396 23.5949 693.956 23.5949H692.676ZM700.26 22.2349H707.156V23.5949H702.036V27.1149H706.532V28.4909H702.036V32.6029H707.284V33.9629H700.26V22.2349ZM709.385 22.2349H711.513C713.257 25.2749 715.001 28.3149 716.761 31.3549V22.2349H718.361V33.9629H716.297C714.521 30.8909 712.761 27.8029 710.985 24.7149V33.9629H709.385V22.2349ZM720.901 22.2349H722.661V33.9629H720.901V22.2349ZM725.182 22.2349H727.31C729.054 25.2749 730.798 28.3149 732.558 31.3549V22.2349H734.158V33.9629H732.094C730.318 30.8909 728.558 27.8029 726.782 24.7149V33.9629H725.182V22.2349ZM745.818 25.6269H743.978C743.914 24.2189 743.098 23.2749 741.45 23.2749C739.418 23.2749 738.138 24.7629 738.138 28.1389C738.138 31.1469 739.306 32.9869 741.242 32.9869C743.002 32.9869 744.138 31.6909 744.17 29.6109H741.978V28.2989H745.818V33.9629H744.65L744.554 32.2189C744.09 33.4349 742.746 34.2669 741.066 34.2669C738.09 34.2669 736.218 32.0269 736.218 28.2029C736.218 24.4269 738.122 21.9789 741.514 21.9789C744.122 21.9789 745.738 23.4989 745.818 25.6269Z" fill="#A8A8A8"/>
<path d="M698.596 66.7789V77.9629H696.964V69.2909C696.58 69.8029 695.396 70.5709 694.708 70.6829V69.0829C695.812 68.7149 696.868 67.8669 697.396 66.7789H698.596ZM701.811 72.4109C701.811 69.0989 702.979 66.5869 705.651 66.5869C708.467 66.5869 709.523 68.9549 709.523 72.4109C709.523 75.7229 708.387 78.2189 705.651 78.2189C702.675 78.2189 701.811 75.4829 701.811 72.4109ZM703.587 72.4589C703.587 75.0669 704.131 76.9229 705.651 76.9229C707.283 76.9229 707.763 74.6829 707.763 72.4269C707.763 69.8029 707.235 67.8989 705.667 67.8989C704.195 67.8989 703.587 69.7229 703.587 72.4589ZM713.093 77.9629H711.077V75.8989H713.093V77.9629ZM716.767 76.5389H721.311V77.9629H714.655C714.847 73.6109 719.679 72.9709 719.679 69.7869C719.679 68.9709 719.199 67.8189 717.983 67.8189C716.799 67.8189 716.319 68.7309 716.319 70.2669C715.759 70.2669 715.215 70.2509 714.655 70.2509V69.8189C714.655 67.8189 715.967 66.5709 718.063 66.5709C720.063 66.5709 721.423 67.8829 721.423 69.7869C721.423 71.5789 720.271 72.8429 718.799 74.1069L717.983 74.7789C717.311 75.4029 716.863 75.9469 716.767 76.5389ZM724.98 72.6509H723.604L723.732 66.7949H729.844V68.1869H725.204L725.14 71.0829C725.492 70.7629 726.1 70.3949 726.98 70.3949C728.9 70.3949 730.068 71.8349 730.068 74.2669C730.068 76.4269 729.108 78.2029 726.468 78.2029C724.26 78.2029 723.092 76.7949 723.092 74.9869H724.756C724.756 76.0749 725.268 77.0029 726.484 77.0029C727.892 77.0029 728.308 75.7069 728.308 74.2349C728.308 72.9069 727.764 71.6749 726.5 71.6749C725.652 71.6749 725.172 72.1549 724.98 72.6509ZM702.823 110.779V121.963H701.191V113.291C700.807 113.803 699.623 114.571 698.935 114.683V113.083C700.039 112.715 701.095 111.867 701.623 110.779H702.823ZM706.038 116.411C706.038 113.099 707.206 110.587 709.878 110.587C712.694 110.587 713.75 112.955 713.75 116.411C713.75 119.723 712.614 122.219 709.878 122.219C706.902 122.219 706.038 119.483 706.038 116.411ZM707.814 116.459C707.814 119.067 708.358 120.923 709.878 120.923C711.51 120.923 711.99 118.683 711.99 116.427C711.99 113.803 711.462 111.899 709.894 111.899C708.422 111.899 707.814 113.723 707.814 116.459ZM717.319 121.963H715.303V119.899H717.319V121.963ZM720.754 116.651H719.378L719.506 110.795H725.618V112.187H720.978L720.914 115.083C721.266 114.763 721.874 114.395 722.754 114.395C724.674 114.395 725.842 115.835 725.842 118.267C725.842 120.427 724.882 122.203 722.242 122.203C720.034 122.203 718.866 120.795 718.866 118.987H720.53C720.53 120.075 721.042 121.003 722.258 121.003C723.666 121.003 724.082 119.707 724.082 118.235C724.082 116.907 723.538 115.675 722.274 115.675C721.426 115.675 720.946 116.155 720.754 116.651ZM698.635 154.779V165.963H697.003V157.291C696.619 157.803 695.435 158.571 694.747 158.683V157.083C695.851 156.715 696.907 155.867 697.435 154.779H698.635ZM701.85 160.411C701.85 157.099 703.018 154.587 705.69 154.587C708.506 154.587 709.562 156.955 709.562 160.411C709.562 163.723 708.426 166.219 705.69 166.219C702.714 166.219 701.85 163.483 701.85 160.411ZM703.626 160.459C703.626 163.067 704.17 164.923 705.69 164.923C707.322 164.923 707.802 162.683 707.802 160.427C707.802 157.803 707.274 155.899 705.706 155.899C704.234 155.899 703.626 157.723 703.626 160.459ZM713.132 165.963H711.116V163.899H713.132V165.963ZM714.454 154.763H721.686V156.043C719.974 159.275 718.55 162.603 717.574 165.963H715.782C716.886 162.235 718.55 158.923 720.086 156.187H714.454V154.763ZM724.941 160.651H723.565L723.693 154.795H729.805V156.187H725.165L725.101 159.083C725.453 158.763 726.061 158.395 726.941 158.395C728.861 158.395 730.029 159.835 730.029 162.267C730.029 164.427 729.069 166.203 726.429 166.203C724.221 166.203 723.053 164.795 723.053 162.987H724.717C724.717 164.075 725.229 165.003 726.445 165.003C727.853 165.003 728.269 163.707 728.269 162.235C728.269 160.907 727.725 159.675 726.461 159.675C725.613 159.675 725.133 160.155 724.941 160.651ZM709.862 198.779V209.963H708.23V201.291C707.846 201.803 706.662 202.571 705.974 202.683V201.083C707.078 200.715 708.134 199.867 708.662 198.779H709.862ZM717.253 198.779V209.963H715.621V201.291C715.237 201.803 714.053 202.571 713.365 202.683V201.083C714.469 200.715 715.525 199.867 716.053 198.779H717.253ZM699.534 242.779V253.963H697.902V245.291C697.518 245.803 696.334 246.571 695.646 246.683V245.083C696.75 244.715 697.806 243.867 698.334 242.779H699.534ZM706.924 242.779V253.963H705.292V245.291C704.908 245.803 703.724 246.571 703.036 246.683V245.083C704.14 244.715 705.196 243.867 705.724 242.779H706.924ZM712.155 253.963H710.139V251.899H712.155V253.963ZM715.83 252.539H720.374V253.963H713.718C713.91 249.611 718.742 248.971 718.742 245.787C718.742 244.971 718.262 243.819 717.046 243.819C715.862 243.819 715.382 244.731 715.382 246.267C714.822 246.267 714.278 246.251 713.718 246.251V245.819C713.718 243.819 715.03 242.571 717.126 242.571C719.126 242.571 720.486 243.883 720.486 245.787C720.486 247.579 719.334 248.843 717.862 250.107L717.046 250.779C716.374 251.403 715.926 251.947 715.83 252.539ZM724.043 248.651H722.667L722.795 242.795H728.907V244.187H724.267L724.203 247.083C724.555 246.763 725.163 246.395 726.043 246.395C727.963 246.395 729.131 247.835 729.131 250.267C729.131 252.427 728.171 254.203 725.531 254.203C723.323 254.203 722.155 252.795 722.155 250.987H723.819C723.819 252.075 724.331 253.003 725.547 253.003C726.955 253.003 727.371 251.707 727.371 250.235C727.371 248.907 726.827 247.675 725.563 247.675C724.715 247.675 724.235 248.155 724.043 248.651Z" fill="black"/>
<line x1="0.607422" y1="48.248" x2="760.01" y2="48.248" stroke="#A8A8A8"/>
</svg>
