<svg width="761" height="256" viewBox="0 0 761 256" fill="none" xmlns="http://www.w3.org/2000/svg">
<path d="M11.3103 29.8755L9.77425 29.4435C7.87025 28.8675 6.52625 28.0515 6.52625 26.1635C6.52625 23.8595 8.44625 22.7715 10.6063 22.7715C13.0863 22.7715 14.6383 24.0995 14.6383 26.4835H12.7823C12.7823 24.9635 12.0623 24.0995 10.5583 24.0995C9.11825 24.0995 8.33425 24.8515 8.33425 25.8915C8.33425 27.3315 9.47025 27.4915 11.6623 28.1315C14.0303 28.7875 14.8623 29.7475 14.8623 31.5395C14.8623 33.7635 13.1023 35.0275 10.5583 35.0275C7.93425 35.0275 6.27025 33.6835 6.27025 31.0275H8.15825C8.15825 32.8515 9.13425 33.7155 10.6383 33.7155C12.0143 33.7155 13.0543 33.0115 13.0543 31.7155C13.0543 30.6755 12.3983 30.1795 11.3103 29.8755ZM17.0609 23.0435H18.8209V34.7715H17.0609V23.0435ZM26.7981 24.4035H20.9421V23.0435H28.8941V24.4515C28.0141 25.9395 23.6301 31.8755 22.7501 33.3795H28.8941V34.7715H20.5901V33.4115L26.7981 24.4035ZM30.7484 23.0435H37.6444V24.4035H32.5244V27.9235H37.0204V29.2995H32.5244V33.4115H37.7724V34.7715H30.7484V23.0435Z" fill="#A8A8A8"/>
<path d="M22.7165 73.8755L21.1805 73.4435C19.2765 72.8675 17.9325 72.0515 17.9325 70.1635C17.9325 67.8595 19.8525 66.7715 22.0125 66.7715C24.4925 66.7715 26.0445 68.0995 26.0445 70.4835H24.1885C24.1885 68.9635 23.4685 68.0995 21.9645 68.0995C20.5245 68.0995 19.7405 68.8515 19.7405 69.8915C19.7405 71.3315 20.8765 71.4915 23.0685 72.1315C25.4365 72.7875 26.2685 73.7475 26.2685 75.5395C26.2685 77.7635 24.5085 79.0275 21.9645 79.0275C19.3405 79.0275 17.6765 77.6835 17.6765 75.0275H19.5645C19.5645 76.8515 20.5405 77.7155 22.0445 77.7155C23.4205 77.7155 24.4605 77.0115 24.4605 75.7155C24.4605 74.6755 23.8045 74.1795 22.7165 73.8755ZM16.1937 111.043H18.7537L22.0177 120.531C23.0897 117.363 24.1457 114.195 25.2177 111.043H27.7617V122.771H26.1137V113.011L22.8017 122.771H21.1057L17.8097 113.043V122.771H16.1937V111.043ZM19.2171 155.043H20.9771V165.347H25.7611V166.771H19.2171V155.043ZM16.8866 204.611L13.4946 199.043H15.5266C15.8946 199.715 17.5106 202.371 17.8946 203.043L20.2306 199.043H22.1666C21.6386 199.955 19.3826 203.651 18.8546 204.579L22.6626 210.771H20.5826C20.1666 210.003 18.2946 206.931 17.8626 206.163C17.4466 206.931 15.5906 210.003 15.1746 210.771H13.1906L16.8866 204.611ZM24.4437 199.043H26.2037V209.347H30.9877V210.771H24.4437V199.043Z" fill="black"/>
<path d="M241.034 23.0435H242.794V27.8275H247.77V23.0435H249.546V34.7715H247.77V29.3635H242.778V34.7715H241.034V23.0435ZM252.096 23.0435H253.856V34.7715H252.096V23.0435ZM256.361 23.0435H259.865C262.361 23.0435 263.961 24.1315 263.961 26.5795C263.961 29.0275 262.425 30.2115 259.817 30.2115H258.137V34.7715H256.361V23.0435ZM258.121 24.4035V28.8195H259.529C260.985 28.8195 262.137 28.3555 262.137 26.5955C262.137 24.7555 260.841 24.4035 259.401 24.4035H258.121Z" fill="#A8A8A8"/>
<path d="M246.142 77.3475H250.686V78.7715H244.03C244.222 74.4195 249.054 73.7795 249.054 70.5955C249.054 69.7795 248.574 68.6275 247.358 68.6275C246.174 68.6275 245.694 69.5395 245.694 71.0755C245.134 71.0755 244.59 71.0595 244.03 71.0595V70.6275C244.03 68.6275 245.342 67.3795 247.438 67.3795C249.438 67.3795 250.798 68.6915 250.798 70.5955C250.798 72.3875 249.646 73.6515 248.174 74.9155L247.358 75.5875C246.686 76.2115 246.238 76.7555 246.142 77.3475ZM252.467 73.2195C252.467 69.9075 253.635 67.3955 256.307 67.3955C259.123 67.3955 260.179 69.7635 260.179 73.2195C260.179 76.5315 259.043 79.0275 256.307 79.0275C253.331 79.0275 252.467 76.2915 252.467 73.2195ZM254.243 73.2675C254.243 75.8755 254.787 77.7315 256.307 77.7315C257.939 77.7315 258.419 75.4915 258.419 73.2355C258.419 70.6115 257.891 68.7075 256.323 68.7075C254.851 68.7075 254.243 70.5315 254.243 73.2675ZM247.08 121.347H251.624V122.771H244.968C245.16 118.419 249.992 117.779 249.992 114.595C249.992 113.779 249.512 112.627 248.296 112.627C247.112 112.627 246.632 113.539 246.632 115.075C246.072 115.075 245.528 115.059 244.968 115.059V114.627C244.968 112.627 246.28 111.379 248.376 111.379C250.376 111.379 251.736 112.691 251.736 114.595C251.736 116.387 250.584 117.651 249.112 118.915L248.296 119.587C247.624 120.211 247.176 120.755 247.08 121.347ZM257.581 111.587V122.771H255.949V114.099C255.565 114.611 254.381 115.379 253.693 115.491V113.891C254.797 113.523 255.853 112.675 256.381 111.587H257.581ZM246.548 165.347H251.092V166.771H244.436C244.628 162.419 249.46 161.779 249.46 158.595C249.46 157.779 248.98 156.627 247.764 156.627C246.58 156.627 246.1 157.539 246.1 159.075C245.54 159.075 244.996 159.059 244.436 159.059V158.627C244.436 156.627 245.748 155.379 247.844 155.379C249.844 155.379 251.204 156.691 251.204 158.595C251.204 160.387 250.052 161.651 248.58 162.915L247.764 163.587C247.092 164.211 246.644 164.755 246.548 165.347ZM255.001 165.347H259.545V166.771H252.889C253.081 162.419 257.913 161.779 257.913 158.595C257.913 157.779 257.433 156.627 256.217 156.627C255.033 156.627 254.553 157.539 254.553 159.075C253.993 159.075 253.449 159.059 252.889 159.059V158.627C252.889 156.627 254.201 155.379 256.297 155.379C258.297 155.379 259.657 156.691 259.657 158.595C259.657 160.387 258.505 161.651 257.033 162.915L256.217 163.587C255.545 164.211 255.097 164.755 255.001 165.347ZM246.455 209.347H250.999V210.771H244.343C244.535 206.419 249.367 205.779 249.367 202.595C249.367 201.779 248.887 200.627 247.671 200.627C246.487 200.627 246.007 201.539 246.007 203.075C245.447 203.075 244.903 203.059 244.343 203.059V202.627C244.343 200.627 245.655 199.379 247.751 199.379C249.751 199.379 251.111 200.691 251.111 202.595C251.111 204.387 249.959 205.651 248.487 206.915L247.671 207.587C246.999 208.211 246.551 208.755 246.455 209.347ZM255.308 205.603V204.323H255.836C257.084 204.323 257.884 203.875 257.884 202.435C257.884 201.443 257.324 200.611 256.252 200.611C255.132 200.611 254.636 201.427 254.636 202.323V202.627H252.908C252.908 201.187 253.596 199.395 256.284 199.395H256.364C258.092 199.411 259.596 200.499 259.596 202.387C259.596 203.251 259.26 204.435 257.964 204.947C259.116 205.267 259.804 206.243 259.804 207.651C259.804 208.979 259.1 211.027 256.14 211.027C253.74 211.027 252.7 209.587 252.7 207.715H254.444C254.444 209.043 255.116 209.795 256.156 209.795C257.34 209.795 258.012 209.155 258.012 207.635C258.012 206.083 257.388 205.603 255.884 205.603H255.308ZM246.408 253.347H250.952V254.771H244.296C244.488 250.419 249.32 249.779 249.32 246.595C249.32 245.779 248.84 244.627 247.624 244.627C246.44 244.627 245.96 245.539 245.96 247.075C245.4 247.075 244.856 247.059 244.296 247.059V246.627C244.296 244.627 245.608 243.379 247.704 243.379C249.704 243.379 251.064 244.691 251.064 246.595C251.064 248.387 249.912 249.651 248.44 250.915L247.624 251.587C246.952 252.211 246.504 252.755 246.408 253.347ZM252.477 250.739L256.525 243.555H258.669V250.707H260.221V252.099H258.653V254.771H257.053V252.099H252.477V250.739ZM254.013 250.723H257.053V245.171L254.013 250.723Z" fill="black"/>
<path d="M114.785 23.0435C115.489 26.1315 116.177 29.2355 116.865 32.3235C117.697 29.2195 118.497 26.1475 119.313 23.0435H121.009L123.393 32.3075C124.081 29.2195 124.801 26.1315 125.489 23.0435H127.185L124.305 34.7715H122.513L120.113 25.6515C119.345 28.6915 118.545 31.7315 117.761 34.7715H115.873L112.977 23.0435H114.785ZM133.134 24.8675L131.214 30.4675H134.958L133.134 24.8675ZM136.366 34.7715L135.406 31.9075H130.718C130.382 32.8675 130.062 33.8275 129.726 34.7715H127.87L132.174 23.0435H134.238C135.566 26.9635 136.91 30.8515 138.238 34.7715H136.366ZM139.938 23.0435H141.698V34.7715H139.938V23.0435ZM148.859 29.8755L147.323 29.4435C145.419 28.8675 144.075 28.0515 144.075 26.1635C144.075 23.8595 145.995 22.7715 148.155 22.7715C150.635 22.7715 152.187 24.0995 152.187 26.4835H150.331C150.331 24.9635 149.611 24.0995 148.107 24.0995C146.667 24.0995 145.883 24.8515 145.883 25.8915C145.883 27.3315 147.019 27.4915 149.211 28.1315C151.579 28.7875 152.411 29.7475 152.411 31.5395C152.411 33.7635 150.651 35.0275 148.107 35.0275C145.483 35.0275 143.819 33.6835 143.819 31.0275H145.707C145.707 32.8515 146.683 33.7155 148.187 33.7155C149.563 33.7155 150.603 33.0115 150.603 31.7155C150.603 30.6755 149.947 30.1795 148.859 29.8755ZM153.49 23.0435H161.25V24.4515H158.242V34.7715H156.482V24.4515H153.49V23.0435Z" fill="#A8A8A8"/>
<path d="M131.4 73.6035V72.3235H131.928C133.176 72.3235 133.976 71.8755 133.976 70.4355C133.976 69.4435 133.416 68.6115 132.344 68.6115C131.224 68.6115 130.728 69.4275 130.728 70.3235V70.6275H129C129 69.1875 129.688 67.3955 132.376 67.3955H132.456C134.184 67.4115 135.688 68.4995 135.688 70.3875C135.688 71.2515 135.352 72.4355 134.056 72.9475C135.208 73.2675 135.896 74.2435 135.896 75.6515C135.896 76.9795 135.192 79.0275 132.232 79.0275C129.832 79.0275 128.792 77.5875 128.792 75.7155H130.536C130.536 77.0435 131.208 77.7955 132.248 77.7955C133.432 77.7955 134.104 77.1555 134.104 75.6355C134.104 74.0835 133.48 73.6035 131.976 73.6035H131.4ZM137.512 73.2195C137.512 69.9075 138.68 67.3955 141.352 67.3955C144.168 67.3955 145.224 69.7635 145.224 73.2195C145.224 76.5315 144.088 79.0275 141.352 79.0275C138.376 79.0275 137.512 76.2915 137.512 73.2195ZM139.288 73.2675C139.288 75.8755 139.832 77.7315 141.352 77.7315C142.984 77.7315 143.464 75.4915 143.464 73.2355C143.464 70.6115 142.936 68.7075 141.368 68.7075C139.896 68.7075 139.288 70.5315 139.288 73.2675ZM131.806 117.603V116.323H132.334C133.582 116.323 134.382 115.875 134.382 114.435C134.382 113.443 133.822 112.611 132.75 112.611C131.63 112.611 131.134 113.427 131.134 114.323V114.627H129.406C129.406 113.187 130.094 111.395 132.782 111.395H132.862C134.59 111.411 136.094 112.499 136.094 114.387C136.094 115.251 135.758 116.435 134.462 116.947C135.614 117.267 136.302 118.243 136.302 119.651C136.302 120.979 135.598 123.027 132.638 123.027C130.238 123.027 129.198 121.587 129.198 119.715H130.942C130.942 121.043 131.614 121.795 132.654 121.795C133.838 121.795 134.51 121.155 134.51 119.635C134.51 118.083 133.886 117.603 132.382 117.603H131.806ZM140.046 121.347H144.59V122.771H137.934C138.126 118.419 142.958 117.779 142.958 114.595C142.958 113.779 142.478 112.627 141.262 112.627C140.078 112.627 139.598 113.539 139.598 115.075C139.038 115.075 138.494 115.059 137.934 115.059V114.627C137.934 112.627 139.246 111.379 141.342 111.379C143.342 111.379 144.702 112.691 144.702 114.595C144.702 116.387 143.55 117.651 142.078 118.915L141.262 119.587C140.59 120.211 140.142 120.755 140.046 121.347ZM131.665 161.603V160.323H132.193C133.441 160.323 134.241 159.875 134.241 158.435C134.241 157.443 133.681 156.611 132.609 156.611C131.489 156.611 130.993 157.427 130.993 158.323V158.627H129.265C129.265 157.187 129.953 155.395 132.641 155.395H132.721C134.449 155.411 135.953 156.499 135.953 158.387C135.953 159.251 135.617 160.435 134.321 160.947C135.473 161.267 136.161 162.243 136.161 163.651C136.161 164.979 135.457 167.027 132.497 167.027C130.097 167.027 129.057 165.587 129.057 163.715H130.801C130.801 165.043 131.473 165.795 132.513 165.795C133.697 165.795 134.369 165.155 134.369 163.635C134.369 162.083 133.745 161.603 132.241 161.603H131.665ZM137.522 162.739L141.57 155.555H143.714V162.707H145.266V164.099H143.698V166.771H142.098V164.099H137.522V162.739ZM139.058 162.723H142.098V157.171L139.058 162.723ZM131.509 205.603V204.323H132.037C133.285 204.323 134.085 203.875 134.085 202.435C134.085 201.443 133.525 200.611 132.453 200.611C131.333 200.611 130.837 201.427 130.837 202.323V202.627H129.109C129.109 201.187 129.797 199.395 132.485 199.395H132.565C134.293 199.411 135.797 200.499 135.797 202.387C135.797 203.251 135.461 204.435 134.165 204.947C135.317 205.267 136.005 206.243 136.005 207.651C136.005 208.979 135.301 211.027 132.341 211.027C129.941 211.027 128.901 209.587 128.901 207.715H130.645C130.645 209.043 131.317 209.795 132.357 209.795C133.541 209.795 134.213 209.155 134.213 207.635C134.213 206.083 133.589 205.603 132.085 205.603H131.509ZM144.998 202.275H143.382C143.286 201.379 142.758 200.675 141.734 200.675C139.926 200.675 139.51 203.043 139.43 204.931C139.814 204.227 140.726 203.571 141.958 203.571C143.494 203.571 145.158 204.547 145.158 207.139C145.158 208.851 144.214 210.995 141.478 210.995C138.838 210.995 137.75 209.043 137.75 205.651C137.75 201.347 139.222 199.395 141.718 199.395C143.926 199.395 144.854 200.835 144.998 202.275ZM141.494 204.851C140.214 204.851 139.542 205.859 139.542 207.315C139.542 208.547 140.15 209.715 141.494 209.715C142.518 209.715 143.446 208.851 143.446 207.283C143.446 206.067 142.854 204.851 141.494 204.851ZM131.571 249.603V248.323H132.099C133.347 248.323 134.147 247.875 134.147 246.435C134.147 245.443 133.587 244.611 132.515 244.611C131.395 244.611 130.899 245.427 130.899 246.323V246.627H129.171C129.171 245.187 129.859 243.395 132.547 243.395H132.627C134.355 243.411 135.859 244.499 135.859 246.387C135.859 247.251 135.523 248.435 134.227 248.947C135.379 249.267 136.067 250.243 136.067 251.651C136.067 252.979 135.363 255.027 132.403 255.027C130.003 255.027 128.963 253.587 128.963 251.715H130.707C130.707 253.043 131.379 253.795 132.419 253.795C133.603 253.795 134.275 253.155 134.275 251.635C134.275 250.083 133.651 249.603 132.147 249.603H131.571ZM141.268 255.011C139.412 254.995 137.588 253.971 137.588 251.731C137.588 250.339 138.42 249.267 139.476 248.947C138.484 248.515 137.828 247.555 137.828 246.403C137.828 244.467 139.396 243.395 141.332 243.395C143.252 243.395 144.82 244.467 144.82 246.403C144.82 247.555 144.164 248.515 143.172 248.947C144.26 249.267 145.076 250.339 145.076 251.731C145.076 254.067 143.092 255.011 141.332 255.011H141.268ZM141.332 244.659C140.308 244.659 139.524 245.283 139.524 246.515C139.524 247.699 140.356 248.387 141.332 248.387C142.292 248.387 143.14 247.699 143.14 246.515C143.14 245.251 142.34 244.659 141.332 244.659ZM141.332 249.571C140.084 249.571 139.268 250.451 139.268 251.667C139.268 253.027 140.164 253.763 141.332 253.763C142.516 253.763 143.38 253.027 143.38 251.667C143.38 250.467 142.58 249.571 141.332 249.571Z" fill="black"/>
<path d="M331.542 23.0435V24.4355H326.454V27.9395H331.03V29.3475H326.454V34.7715H324.694V23.0435H331.542ZM335.017 24.3875V28.2595H336.777C338.025 28.2595 338.985 27.6515 338.985 26.3075C338.985 24.9475 338.137 24.3875 336.985 24.3875H335.017ZM333.241 23.0435H337.385C339.705 23.0435 340.793 24.4835 340.793 26.0675C340.793 27.5555 339.801 28.5315 338.777 28.8675C339.897 29.0595 340.553 29.7795 340.553 31.2195V32.8995C340.553 33.6355 340.681 34.3075 340.937 34.7715H339.097C338.873 34.4675 338.777 33.8915 338.777 33.1235V31.2995C338.777 30.0035 338.169 29.6195 337.097 29.6195H335.001V34.7715H333.241V23.0435ZM347.665 35.0275C344.529 35.0275 342.465 32.8355 342.465 28.8515C342.465 24.9795 344.609 22.7875 347.665 22.7875C350.689 22.7875 352.849 24.9795 352.849 28.8515C352.849 32.8355 350.785 35.0275 347.665 35.0275ZM347.665 33.6995C349.713 33.6995 350.977 32.0195 350.977 28.8675C350.977 25.7795 349.681 24.1475 347.665 24.1475C345.633 24.1475 344.353 25.7795 344.353 28.8675C344.353 32.0195 345.585 33.6995 347.665 33.6995ZM354.944 23.0435H357.072C358.816 26.0835 360.56 29.1235 362.32 32.1635V23.0435H363.92V34.7715H361.856C360.08 31.6995 358.32 28.6115 356.544 25.5235V34.7715H354.944V23.0435ZM365.339 23.0435H373.099V24.4515H370.091V34.7715H368.331V24.4515H365.339V23.0435ZM380.47 24.3875V28.2595H382.23C383.478 28.2595 384.438 27.6515 384.438 26.3075C384.438 24.9475 383.59 24.3875 382.438 24.3875H380.47ZM378.694 23.0435H382.838C385.158 23.0435 386.246 24.4835 386.246 26.0675C386.246 27.5555 385.254 28.5315 384.23 28.8675C385.35 29.0595 386.006 29.7795 386.006 31.2195V32.8995C386.006 33.6355 386.134 34.3075 386.39 34.7715H384.55C384.326 34.4675 384.23 33.8915 384.23 33.1235V31.2995C384.23 30.0035 383.622 29.6195 382.55 29.6195H380.454V34.7715H378.694V23.0435ZM388.35 23.0435H390.11V34.7715H388.35V23.0435ZM397.271 29.8755L395.735 29.4435C393.831 28.8675 392.487 28.0515 392.487 26.1635C392.487 23.8595 394.407 22.7715 396.567 22.7715C399.047 22.7715 400.599 24.0995 400.599 26.4835H398.743C398.743 24.9635 398.023 24.0995 396.519 24.0995C395.079 24.0995 394.295 24.8515 394.295 25.8915C394.295 27.3315 395.431 27.4915 397.623 28.1315C399.991 28.7875 400.823 29.7475 400.823 31.5395C400.823 33.7635 399.063 35.0275 396.519 35.0275C393.895 35.0275 392.231 33.6835 392.231 31.0275H394.119C394.119 32.8515 395.095 33.7155 396.599 33.7155C397.975 33.7155 399.015 33.0115 399.015 31.7155C399.015 30.6755 398.359 30.1795 397.271 29.8755ZM403.022 23.0435H409.918V24.4035H404.798V27.9235H409.294V29.2995H404.798V33.4115H410.046V34.7715H403.022V23.0435Z" fill="#A8A8A8"/>
<path d="M357.671 67.5875V78.7715H356.039V70.0995C355.655 70.6115 354.471 71.3795 353.783 71.4915V69.8915C354.887 69.5235 355.943 68.6755 356.471 67.5875H357.671ZM360.885 73.2195C360.885 69.9075 362.053 67.3955 364.725 67.3955C367.541 67.3955 368.597 69.7635 368.597 73.2195C368.597 76.5315 367.461 79.0275 364.725 79.0275C361.749 79.0275 360.885 76.2915 360.885 73.2195ZM362.661 73.2675C362.661 75.8755 363.205 77.7315 364.725 77.7315C366.357 77.7315 366.837 75.4915 366.837 73.2355C366.837 70.6115 366.309 68.7075 364.741 68.7075C363.269 68.7075 362.661 70.5315 362.661 73.2675ZM372.167 78.7715H370.151V76.7075H372.167V78.7715ZM375.601 73.4595H374.225L374.353 67.6035H380.465V68.9955H375.825L375.761 71.8915C376.113 71.5715 376.721 71.2035 377.601 71.2035C379.521 71.2035 380.689 72.6435 380.689 75.0755C380.689 77.2355 379.729 79.0115 377.089 79.0115C374.881 79.0115 373.713 77.6035 373.713 75.7955H375.377C375.377 76.8835 375.889 77.8115 377.105 77.8115C378.513 77.8115 378.929 76.5155 378.929 75.0435C378.929 73.7155 378.385 72.4835 377.121 72.4835C376.273 72.4835 375.793 72.9635 375.601 73.4595ZM364.71 111.587V122.771H363.078V114.099C362.694 114.611 361.51 115.379 360.822 115.491V113.891C361.926 113.523 362.982 112.675 363.51 111.587H364.71ZM372.1 111.587V122.771H370.468V114.099C370.084 114.611 368.9 115.379 368.212 115.491V113.891C369.316 113.523 370.372 112.675 370.9 111.587H372.1ZM358.608 155.587V166.771H356.976V158.099C356.592 158.611 355.408 159.379 354.72 159.491V157.891C355.824 157.523 356.88 156.675 357.408 155.587H358.608ZM365.999 155.587V166.771H364.367V158.099C363.983 158.611 362.799 159.379 362.111 159.491V157.891C363.215 157.523 364.271 156.675 364.799 155.587H365.999ZM371.229 166.771H369.213V164.707H371.229V166.771ZM374.664 161.459H373.288L373.416 155.603H379.528V156.995H374.888L374.824 159.891C375.176 159.571 375.784 159.203 376.664 159.203C378.584 159.203 379.752 160.643 379.752 163.075C379.752 165.235 378.792 167.011 376.152 167.011C373.944 167.011 372.776 165.603 372.776 163.795H374.44C374.44 164.883 374.952 165.811 376.168 165.811C377.576 165.811 377.992 164.515 377.992 163.043C377.992 161.715 377.448 160.483 376.184 160.483C375.336 160.483 374.856 160.963 374.664 161.459ZM364.178 199.587V210.771H362.546V202.099C362.162 202.611 360.978 203.379 360.29 203.491V201.891C361.394 201.523 362.45 200.675 362.978 199.587H364.178ZM369.521 209.347H374.065V210.771H367.409C367.601 206.419 372.433 205.779 372.433 202.595C372.433 201.779 371.953 200.627 370.737 200.627C369.553 200.627 369.073 201.539 369.073 203.075C368.513 203.075 367.969 203.059 367.409 203.059V202.627C367.409 200.627 368.721 199.379 370.817 199.379C372.817 199.379 374.177 200.691 374.177 202.595C374.177 204.387 373.025 205.651 371.553 206.915L370.737 207.587C370.065 208.211 369.617 208.755 369.521 209.347ZM358.077 243.587V254.771H356.445V246.099C356.061 246.611 354.877 247.379 354.189 247.491V245.891C355.293 245.523 356.349 244.675 356.877 243.587H358.077ZM363.419 253.347H367.963V254.771H361.307C361.499 250.419 366.331 249.779 366.331 246.595C366.331 245.779 365.851 244.627 364.635 244.627C363.451 244.627 362.971 245.539 362.971 247.075C362.411 247.075 361.867 247.059 361.307 247.059V246.627C361.307 244.627 362.619 243.379 364.715 243.379C366.715 243.379 368.075 244.691 368.075 246.595C368.075 248.387 366.923 249.651 365.451 250.915L364.635 251.587C363.963 252.211 363.515 252.755 363.419 253.347ZM371.761 254.771H369.745V252.707H371.761V254.771ZM375.195 249.459H373.819L373.947 243.603H380.059V244.995H375.419L375.355 247.891C375.707 247.571 376.315 247.203 377.195 247.203C379.115 247.203 380.283 248.643 380.283 251.075C380.283 253.235 379.323 255.011 376.683 255.011C374.475 255.011 373.307 253.603 373.307 251.795H374.971C374.971 252.883 375.483 253.811 376.699 253.811C378.107 253.811 378.523 252.515 378.523 251.043C378.523 249.715 377.979 248.483 376.715 248.483C375.867 248.483 375.387 248.963 375.195 249.459Z" fill="black"/>
<path d="M443.549 23.0435H447.677C449.789 23.0435 451.069 24.0355 451.069 25.9395C451.069 27.2195 450.301 28.2595 449.197 28.5955C450.557 28.8835 451.549 29.9075 451.549 31.3795C451.549 33.5395 450.253 34.7715 447.549 34.7715H443.549V23.0435ZM445.325 24.3715V28.0195H447.325C448.413 28.0195 449.293 27.3155 449.293 26.1315C449.293 24.3715 447.741 24.3715 446.445 24.3715H445.325ZM445.309 29.3635V33.4115H447.069C448.845 33.4115 449.725 32.8675 449.725 31.3155C449.725 29.7955 448.733 29.3635 447.133 29.3635H445.309ZM457.839 24.8675L455.919 30.4675H459.663L457.839 24.8675ZM461.071 34.7715L460.111 31.9075H455.423C455.087 32.8675 454.767 33.8275 454.431 34.7715H452.575L456.879 23.0435H458.943C460.271 26.9635 461.615 30.8515 462.943 34.7715H461.071ZM473.603 26.4195H471.811C471.715 24.8995 470.771 24.1155 469.315 24.1155C467.459 24.1155 466.147 25.7635 466.147 29.1395C466.147 31.7635 467.171 33.7155 469.331 33.7155C470.803 33.7155 471.827 32.7715 471.875 31.0275H473.715C473.651 33.4755 471.971 35.0435 469.299 35.0435C465.923 35.0435 464.243 32.7875 464.243 28.8515C464.243 24.9315 466.323 22.7715 469.299 22.7715C471.619 22.7715 473.523 24.0035 473.603 26.4195ZM475.674 23.0435H477.434V28.7075C478.938 26.8195 480.442 24.9315 481.93 23.0435H484.074L480.138 27.8115L484.218 34.7715H482.154L478.986 29.1235C478.458 29.7475 477.962 30.3875 477.434 31.0115V34.7715H475.674V23.0435ZM491.716 24.3875V28.2595H493.476C494.724 28.2595 495.684 27.6515 495.684 26.3075C495.684 24.9475 494.836 24.3875 493.684 24.3875H491.716ZM489.94 23.0435H494.084C496.404 23.0435 497.492 24.4835 497.492 26.0675C497.492 27.5555 496.5 28.5315 495.476 28.8675C496.596 29.0595 497.252 29.7795 497.252 31.2195V32.8995C497.252 33.6355 497.38 34.3075 497.636 34.7715H495.796C495.572 34.4675 495.476 33.8915 495.476 33.1235V31.2995C495.476 30.0035 494.868 29.6195 493.796 29.6195H491.7V34.7715H489.94V23.0435ZM499.596 23.0435H501.356V34.7715H499.596V23.0435ZM508.517 29.8755L506.981 29.4435C505.077 28.8675 503.733 28.0515 503.733 26.1635C503.733 23.8595 505.653 22.7715 507.813 22.7715C510.293 22.7715 511.845 24.0995 511.845 26.4835H509.989C509.989 24.9635 509.269 24.0995 507.765 24.0995C506.325 24.0995 505.541 24.8515 505.541 25.8915C505.541 27.3315 506.677 27.4915 508.869 28.1315C511.237 28.7875 512.069 29.7475 512.069 31.5395C512.069 33.7635 510.309 35.0275 507.765 35.0275C505.141 35.0275 503.477 33.6835 503.477 31.0275H505.365C505.365 32.8515 506.341 33.7155 507.845 33.7155C509.221 33.7155 510.261 33.0115 510.261 31.7155C510.261 30.6755 509.605 30.1795 508.517 29.8755ZM514.268 23.0435H521.164V24.4035H516.044V27.9235H520.54V29.2995H516.044V33.4115H521.292V34.7715H514.268V23.0435Z" fill="#A8A8A8"/>
<path d="M479.268 67.5875V78.7715H477.636V70.0995C477.252 70.6115 476.068 71.3795 475.38 71.4915V69.8915C476.484 69.5235 477.54 68.6755 478.068 67.5875H479.268ZM482.259 67.5715H489.491V68.8515C487.779 72.0835 486.355 75.4115 485.379 78.7715H483.587C484.691 75.0435 486.355 71.7315 487.891 68.9955H482.259V67.5715ZM473.167 111.587V122.771H471.535V114.099C471.151 114.611 469.967 115.379 469.279 115.491V113.891C470.383 113.523 471.439 112.675 471.967 111.587H473.167ZM476.157 111.571H483.389V112.851C481.677 116.083 480.253 119.411 479.277 122.771H477.485C478.589 119.043 480.253 115.731 481.789 112.995H476.157V111.571ZM486.772 122.771H484.756V120.707H486.772V122.771ZM490.207 117.459H488.831L488.959 111.603H495.071V112.995H490.431L490.367 115.891C490.719 115.571 491.327 115.203 492.207 115.203C494.127 115.203 495.295 116.643 495.295 119.075C495.295 121.235 494.335 123.011 491.695 123.011C489.487 123.011 488.319 121.603 488.319 119.795H489.983C489.983 120.883 490.495 121.811 491.711 121.811C493.119 121.811 493.535 120.515 493.535 119.043C493.535 117.715 492.991 116.483 491.727 116.483C490.879 116.483 490.399 116.963 490.207 117.459ZM478.995 155.587V166.771H477.363V158.099C476.979 158.611 475.795 159.379 475.107 159.491V157.891C476.211 157.523 477.267 156.675 477.795 155.587H478.995ZM485.793 167.011C483.937 166.995 482.113 165.971 482.113 163.731C482.113 162.339 482.945 161.267 484.001 160.947C483.009 160.515 482.353 159.555 482.353 158.403C482.353 156.467 483.921 155.395 485.857 155.395C487.777 155.395 489.345 156.467 489.345 158.403C489.345 159.555 488.689 160.515 487.697 160.947C488.785 161.267 489.601 162.339 489.601 163.731C489.601 166.067 487.617 167.011 485.857 167.011H485.793ZM485.857 156.659C484.833 156.659 484.049 157.283 484.049 158.515C484.049 159.699 484.881 160.387 485.857 160.387C486.817 160.387 487.665 159.699 487.665 158.515C487.665 157.251 486.865 156.659 485.857 156.659ZM485.857 161.571C484.609 161.571 483.793 162.451 483.793 163.667C483.793 165.027 484.689 165.763 485.857 165.763C487.041 165.763 487.905 165.027 487.905 163.667C487.905 162.467 487.105 161.571 485.857 161.571ZM472.893 199.587V210.771H471.261V202.099C470.877 202.611 469.693 203.379 469.005 203.491V201.891C470.109 201.523 471.165 200.675 471.693 199.587H472.893ZM479.692 211.011C477.836 210.995 476.012 209.971 476.012 207.731C476.012 206.339 476.844 205.267 477.9 204.947C476.908 204.515 476.252 203.555 476.252 202.403C476.252 200.467 477.82 199.395 479.756 199.395C481.676 199.395 483.244 200.467 483.244 202.403C483.244 203.555 482.588 204.515 481.596 204.947C482.684 205.267 483.5 206.339 483.5 207.731C483.5 210.067 481.516 211.011 479.756 211.011H479.692ZM479.756 200.659C478.732 200.659 477.948 201.283 477.948 202.515C477.948 203.699 478.78 204.387 479.756 204.387C480.716 204.387 481.564 203.699 481.564 202.515C481.564 201.251 480.764 200.659 479.756 200.659ZM479.756 205.571C478.508 205.571 477.692 206.451 477.692 207.667C477.692 209.027 478.588 209.763 479.756 209.763C480.94 209.763 481.804 209.027 481.804 207.667C481.804 206.467 481.004 205.571 479.756 205.571ZM487.046 210.771H485.03V208.707H487.046V210.771ZM490.48 205.459H489.104L489.232 199.603H495.344V200.995H490.704L490.64 203.891C490.992 203.571 491.6 203.203 492.48 203.203C494.4 203.203 495.568 204.643 495.568 207.075C495.568 209.235 494.608 211.011 491.968 211.011C489.76 211.011 488.592 209.603 488.592 207.795H490.256C490.256 208.883 490.768 209.811 491.984 209.811C493.392 209.811 493.808 208.515 493.808 207.043C493.808 205.715 493.264 204.483 492 204.483C491.152 204.483 490.672 204.963 490.48 205.459ZM478.932 243.587V254.771H477.3V246.099C476.916 246.611 475.732 247.379 475.044 247.491V245.891C476.148 245.523 477.204 244.675 477.732 243.587H478.932ZM485.747 244.707C484.579 244.707 483.811 245.667 483.811 247.139C483.811 248.691 484.723 249.459 485.747 249.459C487.011 249.459 487.731 248.419 487.731 247.123C487.731 245.747 486.947 244.707 485.747 244.707ZM482.339 252.051H483.955C483.987 252.931 484.611 253.747 485.667 253.747C487.491 253.747 487.843 251.539 487.843 249.491C487.475 250.307 486.643 250.835 485.443 250.835C483.763 250.835 482.115 249.587 482.115 247.187C482.115 244.867 483.635 243.379 485.763 243.379C487.939 243.379 489.523 244.835 489.523 248.803C489.523 252.499 488.675 255.011 485.603 255.011C483.491 255.011 482.371 253.475 482.339 252.051Z" fill="black"/>
<path d="M568.207 1.15091H569.967V12.8789H568.207V1.15091ZM572.489 1.15091H574.617C576.361 4.19091 578.105 7.23091 579.865 10.2709V1.15091H581.465V12.8789H579.401C577.625 9.80691 575.865 6.71891 574.089 3.63091V12.8789H572.489V1.15091ZM588.644 7.98291L587.108 7.55091C585.204 6.97491 583.86 6.15891 583.86 4.27091C583.86 1.96691 585.78 0.878905 587.94 0.878905C590.42 0.878905 591.972 2.20691 591.972 4.59091H590.116C590.116 3.07091 589.396 2.20691 587.892 2.20691C586.452 2.20691 585.668 2.95891 585.668 3.99891C585.668 5.43891 586.804 5.59891 588.996 6.23891C591.364 6.89491 592.196 7.85491 592.196 9.64691C592.196 11.8709 590.436 13.1349 587.892 13.1349C585.268 13.1349 583.604 11.7909 583.604 9.13491H585.492C585.492 10.9589 586.468 11.8229 587.972 11.8229C589.348 11.8229 590.388 11.1189 590.388 9.82291C590.388 8.78291 589.732 8.28691 588.644 7.98291ZM594.395 1.15091H601.291V2.51091H596.171V6.03091H600.667V7.40691H596.171V11.5189H601.419V12.8789H594.395V1.15091ZM607.872 2.97491L605.952 8.57491H609.696L607.872 2.97491ZM611.104 12.8789L610.144 10.0149H605.456C605.12 10.9749 604.8 11.9349 604.464 12.8789H602.608L606.912 1.15091H608.976C610.304 5.07091 611.648 8.95891 612.976 12.8789H611.104ZM614.676 1.15091H617.236L620.5 10.6389C621.572 7.47091 622.628 4.30291 623.7 1.15091H626.244V12.8789H624.596V3.11891L621.284 12.8789H619.588L616.292 3.15091V12.8789H614.676V1.15091ZM568.793 22.1509H570.553V32.4549H575.337V33.8789H568.793V22.1509ZM576.903 22.1509H583.799V23.5109H578.679V27.0309H583.175V28.4069H578.679V32.5189H583.927V33.8789H576.903V22.1509ZM586.028 22.1509H588.156C589.9 25.1909 591.644 28.2309 593.404 31.2709V22.1509H595.004V33.8789H592.94C591.164 30.8069 589.404 27.7189 587.628 24.6309V33.8789H586.028V22.1509ZM606.663 25.5429H604.823C604.759 24.1349 603.943 23.1909 602.295 23.1909C600.263 23.1909 598.983 24.6789 598.983 28.0549C598.983 31.0629 600.151 32.9029 602.087 32.9029C603.847 32.9029 604.983 31.6069 605.015 29.5269H602.823V28.2149H606.663V33.8789H605.495L605.399 32.1349C604.935 33.3509 603.591 34.1829 601.911 34.1829C598.935 34.1829 597.063 31.9429 597.063 28.1189C597.063 24.3429 598.967 21.8949 602.359 21.8949C604.967 21.8949 606.583 23.4149 606.663 25.5429ZM607.986 22.1509H615.746V23.5589H612.738V33.8789H610.978V23.5589H607.986V22.1509ZM617.184 22.1509H618.944V26.9349H623.92V22.1509H625.696V33.8789H623.92V28.4709H618.928V33.8789H617.184V22.1509Z" fill="#A8A8A8"/>
<path d="M585.903 72.7109V71.4309H586.431C587.679 71.4309 588.479 70.9829 588.479 69.5429C588.479 68.5509 587.919 67.7189 586.847 67.7189C585.727 67.7189 585.231 68.5349 585.231 69.4309V69.7349H583.503C583.503 68.2949 584.191 66.5029 586.879 66.5029H586.959C588.687 66.5189 590.191 67.6069 590.191 69.4949C590.191 70.3589 589.855 71.5429 588.559 72.0549C589.711 72.3749 590.399 73.3509 590.399 74.7589C590.399 76.0869 589.695 78.1349 586.735 78.1349C584.335 78.1349 583.295 76.6949 583.295 74.8229H585.039C585.039 76.1509 585.711 76.9029 586.751 76.9029C587.935 76.9029 588.607 76.2629 588.607 74.7429C588.607 73.1909 587.983 72.7109 586.479 72.7109H585.903ZM594.144 76.4549H598.688V77.8789H592.032C592.224 73.5269 597.056 72.8869 597.056 69.7029C597.056 68.8869 596.576 67.7349 595.36 67.7349C594.176 67.7349 593.696 68.6469 593.696 70.1829C593.136 70.1829 592.592 70.1669 592.032 70.1669V69.7349C592.032 67.7349 593.344 66.4869 595.44 66.4869C597.44 66.4869 598.8 67.7989 598.8 69.7029C598.8 71.4949 597.648 72.7589 596.176 74.0229L595.36 74.6949C594.688 75.3189 594.24 75.8629 594.144 76.4549ZM602.485 77.8789H600.469V75.8149H602.485V77.8789ZM605.92 72.5669H604.544L604.672 66.7109H610.784V68.1029H606.144L606.08 70.9989C606.432 70.6789 607.04 70.3109 607.92 70.3109C609.84 70.3109 611.008 71.7509 611.008 74.1829C611.008 76.3429 610.048 78.1189 607.408 78.1189C605.2 78.1189 604.032 76.7109 604.032 74.9029H605.696C605.696 75.9909 606.208 76.9189 607.424 76.9189C608.832 76.9189 609.248 75.6229 609.248 74.1509C609.248 72.8229 608.704 71.5909 607.44 71.5909C606.592 71.5909 606.112 72.0709 605.92 72.5669ZM591.911 116.711V115.431H592.439C593.687 115.431 594.487 114.983 594.487 113.543C594.487 112.551 593.927 111.719 592.855 111.719C591.735 111.719 591.239 112.535 591.239 113.431V113.735H589.511C589.511 112.295 590.199 110.503 592.887 110.503H592.967C594.695 110.519 596.199 111.607 596.199 113.495C596.199 114.359 595.863 115.543 594.567 116.055C595.719 116.375 596.407 117.351 596.407 118.759C596.407 120.087 595.703 122.135 592.743 122.135C590.343 122.135 589.303 120.695 589.303 118.823H591.047C591.047 120.151 591.719 120.903 592.759 120.903C593.943 120.903 594.615 120.263 594.615 118.743C594.615 117.191 593.991 116.711 592.487 116.711H591.911ZM600.552 116.711V115.431H601.08C602.328 115.431 603.128 114.983 603.128 113.543C603.128 112.551 602.568 111.719 601.496 111.719C600.376 111.719 599.88 112.535 599.88 113.431V113.735H598.152C598.152 112.295 598.84 110.503 601.528 110.503H601.608C603.336 110.519 604.84 111.607 604.84 113.495C604.84 114.359 604.504 115.543 603.208 116.055C604.36 116.375 605.048 117.351 605.048 118.759C605.048 120.087 604.344 122.135 601.384 122.135C598.984 122.135 597.944 120.695 597.944 118.823H599.688C599.688 120.151 600.36 120.903 601.4 120.903C602.584 120.903 603.256 120.263 603.256 118.743C603.256 117.191 602.632 116.711 601.128 116.711H600.552ZM585.81 160.711V159.431H586.338C587.586 159.431 588.386 158.983 588.386 157.543C588.386 156.551 587.826 155.719 586.754 155.719C585.634 155.719 585.138 156.535 585.138 157.431V157.735H583.41C583.41 156.295 584.098 154.503 586.786 154.503H586.866C588.594 154.519 590.098 155.607 590.098 157.495C590.098 158.359 589.762 159.543 588.466 160.055C589.618 160.375 590.306 161.351 590.306 162.759C590.306 164.087 589.602 166.135 586.642 166.135C584.242 166.135 583.202 164.695 583.202 162.823H584.946C584.946 164.151 585.618 164.903 586.658 164.903C587.842 164.903 588.514 164.263 588.514 162.743C588.514 161.191 587.89 160.711 586.386 160.711H585.81ZM594.45 160.711V159.431H594.978C596.226 159.431 597.026 158.983 597.026 157.543C597.026 156.551 596.466 155.719 595.394 155.719C594.274 155.719 593.778 156.535 593.778 157.431V157.735H592.05C592.05 156.295 592.738 154.503 595.426 154.503H595.506C597.234 154.519 598.738 155.607 598.738 157.495C598.738 158.359 598.402 159.543 597.106 160.055C598.258 160.375 598.946 161.351 598.946 162.759C598.946 164.087 598.242 166.135 595.282 166.135C592.882 166.135 591.842 164.695 591.842 162.823H593.586C593.586 164.151 594.258 164.903 595.298 164.903C596.482 164.903 597.154 164.263 597.154 162.743C597.154 161.191 596.53 160.711 595.026 160.711H594.45ZM602.579 165.879H600.563V163.815H602.579V165.879ZM606.013 160.567H604.637L604.765 154.711H610.877V156.103H606.237L606.173 158.999C606.525 158.679 607.133 158.311 608.013 158.311C609.933 158.311 611.101 159.751 611.101 162.183C611.101 164.343 610.141 166.119 607.501 166.119C605.293 166.119 604.125 164.711 604.125 162.903H605.789C605.789 163.991 606.301 164.919 607.517 164.919C608.925 164.919 609.341 163.623 609.341 162.151C609.341 160.823 608.797 159.591 607.533 159.591C606.685 159.591 606.205 160.071 606.013 160.567ZM591.864 204.711V203.431H592.392C593.64 203.431 594.44 202.983 594.44 201.543C594.44 200.551 593.88 199.719 592.808 199.719C591.688 199.719 591.192 200.535 591.192 201.431V201.735H589.464C589.464 200.295 590.152 198.503 592.84 198.503H592.92C594.648 198.519 596.152 199.607 596.152 201.495C596.152 202.359 595.816 203.543 594.52 204.055C595.672 204.375 596.36 205.351 596.36 206.759C596.36 208.087 595.656 210.135 592.696 210.135C590.296 210.135 589.256 208.695 589.256 206.823H591C591 208.151 591.672 208.903 592.712 208.903C593.896 208.903 594.568 208.263 594.568 206.743C594.568 205.191 593.944 204.711 592.44 204.711H591.864ZM597.721 205.847L601.769 198.663H603.913V205.815H605.465V207.207H603.897V209.879H602.297V207.207H597.721V205.847ZM599.257 205.831H602.297V200.279L599.257 205.831ZM585.763 248.711V247.431H586.291C587.539 247.431 588.339 246.983 588.339 245.543C588.339 244.551 587.779 243.719 586.707 243.719C585.587 243.719 585.091 244.535 585.091 245.431V245.735H583.363C583.363 244.295 584.051 242.503 586.739 242.503H586.819C588.547 242.519 590.051 243.607 590.051 245.495C590.051 246.359 589.715 247.543 588.419 248.055C589.571 248.375 590.259 249.351 590.259 250.759C590.259 252.087 589.555 254.135 586.595 254.135C584.195 254.135 583.155 252.695 583.155 250.823H584.899C584.899 252.151 585.571 252.903 586.611 252.903C587.795 252.903 588.467 252.263 588.467 250.743C588.467 249.191 587.843 248.711 586.339 248.711H585.763ZM591.619 249.847L595.667 242.663H597.811V249.815H599.363V251.207H597.795V253.879H596.195V251.207H591.619V249.847ZM593.155 249.831H596.195V244.279L593.155 249.831ZM602.626 253.879H600.61V251.815H602.626V253.879ZM606.06 248.567H604.684L604.812 242.711H610.924V244.103H606.284L606.22 246.999C606.572 246.679 607.18 246.311 608.06 246.311C609.98 246.311 611.148 247.751 611.148 250.183C611.148 252.343 610.188 254.119 607.548 254.119C605.34 254.119 604.172 252.711 604.172 250.903H605.836C605.836 251.991 606.348 252.919 607.564 252.919C608.972 252.919 609.388 251.623 609.388 250.151C609.388 248.823 608.844 247.591 607.58 247.591C606.732 247.591 606.252 248.071 606.06 248.567Z" fill="black"/>
<path d="M699.174 1.15091H700.934V11.4549H705.718V12.8789H699.174V1.15091ZM707.284 1.15091H714.18V2.51091H709.06V6.03091H713.556V7.40691H709.06V11.5189H714.308V12.8789H707.284V1.15091ZM725.529 4.54291H723.689C723.625 3.13491 722.809 2.19091 721.161 2.19091C719.129 2.19091 717.849 3.67891 717.849 7.05491C717.849 10.0629 719.017 11.9029 720.953 11.9029C722.713 11.9029 723.849 10.6069 723.881 8.52691H721.689V7.21491H725.529V12.8789H724.361L724.265 11.1349C723.801 12.3509 722.457 13.1829 720.777 13.1829C717.801 13.1829 715.929 10.9429 715.929 7.11891C715.929 3.34291 717.833 0.894906 721.225 0.894906C723.833 0.894906 725.449 2.41491 725.529 4.54291ZM683.653 34.1349C680.517 34.1349 678.453 31.9429 678.453 27.9589C678.453 24.0869 680.597 21.8949 683.653 21.8949C686.677 21.8949 688.837 24.0869 688.837 27.9589C688.837 31.9429 686.773 34.1349 683.653 34.1349ZM683.653 32.8069C685.701 32.8069 686.965 31.1269 686.965 27.9749C686.965 24.8869 685.669 23.2549 683.653 23.2549C681.621 23.2549 680.341 24.8869 680.341 27.9749C680.341 31.1269 681.573 32.8069 683.653 32.8069ZM690.916 22.1509H694.42C696.916 22.1509 698.516 23.2389 698.516 25.6869C698.516 28.1349 696.98 29.3189 694.372 29.3189H692.692V33.8789H690.916V22.1509ZM692.676 23.5109V27.9269H694.084C695.54 27.9269 696.692 27.4629 696.692 25.7029C696.692 23.8629 695.396 23.5109 693.956 23.5109H692.676ZM700.26 22.1509H707.156V23.5109H702.036V27.0309H706.532V28.4069H702.036V32.5189H707.284V33.8789H700.26V22.1509ZM709.385 22.1509H711.513C713.257 25.1909 715.001 28.2309 716.761 31.2709V22.1509H718.361V33.8789H716.297C714.521 30.8069 712.761 27.7189 710.985 24.6309V33.8789H709.385V22.1509ZM720.901 22.1509H722.661V33.8789H720.901V22.1509ZM725.182 22.1509H727.31C729.054 25.1909 730.798 28.2309 732.558 31.2709V22.1509H734.158V33.8789H732.094C730.318 30.8069 728.558 27.7189 726.782 24.6309V33.8789H725.182V22.1509ZM745.818 25.5429H743.978C743.914 24.1349 743.098 23.1909 741.45 23.1909C739.418 23.1909 738.138 24.6789 738.138 28.0549C738.138 31.0629 739.306 32.9029 741.242 32.9029C743.002 32.9029 744.138 31.6069 744.17 29.5269H741.978V28.2149H745.818V33.8789H744.65L744.554 32.1349C744.09 33.3509 742.746 34.1829 741.066 34.1829C738.09 34.1829 736.218 31.9429 736.218 28.1189C736.218 24.3429 738.122 21.8949 741.514 21.8949C744.122 21.8949 745.738 23.4149 745.818 25.5429Z" fill="#A8A8A8"/>
<path d="M698.596 66.6949V77.8789H696.964V69.2069C696.58 69.7189 695.396 70.4869 694.708 70.5989V68.9989C695.812 68.6309 696.868 67.7829 697.396 66.6949H698.596ZM701.811 72.3269C701.811 69.0149 702.979 66.5029 705.651 66.5029C708.467 66.5029 709.523 68.8709 709.523 72.3269C709.523 75.6389 708.387 78.1349 705.651 78.1349C702.675 78.1349 701.811 75.3989 701.811 72.3269ZM703.587 72.3749C703.587 74.9829 704.131 76.8389 705.651 76.8389C707.283 76.8389 707.763 74.5989 707.763 72.3429C707.763 69.7189 707.235 67.8149 705.667 67.8149C704.195 67.8149 703.587 69.6389 703.587 72.3749ZM713.093 77.8789H711.077V75.8149H713.093V77.8789ZM716.767 76.4549H721.311V77.8789H714.655C714.847 73.5269 719.679 72.8869 719.679 69.7029C719.679 68.8869 719.199 67.7349 717.983 67.7349C716.799 67.7349 716.319 68.6469 716.319 70.1829C715.759 70.1829 715.215 70.1669 714.655 70.1669V69.7349C714.655 67.7349 715.967 66.4869 718.063 66.4869C720.063 66.4869 721.423 67.7989 721.423 69.7029C721.423 71.4949 720.271 72.7589 718.799 74.0229L717.983 74.6949C717.311 75.3189 716.863 75.8629 716.767 76.4549ZM724.98 72.5669H723.604L723.732 66.7109H729.844V68.1029H725.204L725.14 70.9989C725.492 70.6789 726.1 70.3109 726.98 70.3109C728.9 70.3109 730.068 71.7509 730.068 74.1829C730.068 76.3429 729.108 78.1189 726.468 78.1189C724.26 78.1189 723.092 76.7109 723.092 74.9029H724.756C724.756 75.9909 725.268 76.9189 726.484 76.9189C727.892 76.9189 728.308 75.6229 728.308 74.1509C728.308 72.8229 727.764 71.5909 726.5 71.5909C725.652 71.5909 725.172 72.0709 724.98 72.5669ZM702.823 110.695V121.879H701.191V113.207C700.807 113.719 699.623 114.487 698.935 114.599V112.999C700.039 112.631 701.095 111.783 701.623 110.695H702.823ZM706.038 116.327C706.038 113.015 707.206 110.503 709.878 110.503C712.694 110.503 713.75 112.871 713.75 116.327C713.75 119.639 712.614 122.135 709.878 122.135C706.902 122.135 706.038 119.399 706.038 116.327ZM707.814 116.375C707.814 118.983 708.358 120.839 709.878 120.839C711.51 120.839 711.99 118.599 711.99 116.343C711.99 113.719 711.462 111.815 709.894 111.815C708.422 111.815 707.814 113.639 707.814 116.375ZM717.319 121.879H715.303V119.815H717.319V121.879ZM720.754 116.567H719.378L719.506 110.711H725.618V112.103H720.978L720.914 114.999C721.266 114.679 721.874 114.311 722.754 114.311C724.674 114.311 725.842 115.751 725.842 118.183C725.842 120.343 724.882 122.119 722.242 122.119C720.034 122.119 718.866 120.711 718.866 118.903H720.53C720.53 119.991 721.042 120.919 722.258 120.919C723.666 120.919 724.082 119.623 724.082 118.151C724.082 116.823 723.538 115.591 722.274 115.591C721.426 115.591 720.946 116.071 720.754 116.567ZM698.635 154.695V165.879H697.003V157.207C696.619 157.719 695.435 158.487 694.747 158.599V156.999C695.851 156.631 696.907 155.783 697.435 154.695H698.635ZM701.85 160.327C701.85 157.015 703.018 154.503 705.69 154.503C708.506 154.503 709.562 156.871 709.562 160.327C709.562 163.639 708.426 166.135 705.69 166.135C702.714 166.135 701.85 163.399 701.85 160.327ZM703.626 160.375C703.626 162.983 704.17 164.839 705.69 164.839C707.322 164.839 707.802 162.599 707.802 160.343C707.802 157.719 707.274 155.815 705.706 155.815C704.234 155.815 703.626 157.639 703.626 160.375ZM713.132 165.879H711.116V163.815H713.132V165.879ZM714.454 154.679H721.686V155.959C719.974 159.191 718.55 162.519 717.574 165.879H715.782C716.886 162.151 718.55 158.839 720.086 156.103H714.454V154.679ZM724.941 160.567H723.565L723.693 154.711H729.805V156.103H725.165L725.101 158.999C725.453 158.679 726.061 158.311 726.941 158.311C728.861 158.311 730.029 159.751 730.029 162.183C730.029 164.343 729.069 166.119 726.429 166.119C724.221 166.119 723.053 164.711 723.053 162.903H724.717C724.717 163.991 725.229 164.919 726.445 164.919C727.853 164.919 728.269 163.623 728.269 162.151C728.269 160.823 727.725 159.591 726.461 159.591C725.613 159.591 725.133 160.071 724.941 160.567ZM709.862 198.695V209.879H708.23V201.207C707.846 201.719 706.662 202.487 705.974 202.599V200.999C707.078 200.631 708.134 199.783 708.662 198.695H709.862ZM717.253 198.695V209.879H715.621V201.207C715.237 201.719 714.053 202.487 713.365 202.599V200.999C714.469 200.631 715.525 199.783 716.053 198.695H717.253ZM699.534 242.695V253.879H697.902V245.207C697.518 245.719 696.334 246.487 695.646 246.599V244.999C696.75 244.631 697.806 243.783 698.334 242.695H699.534ZM706.924 242.695V253.879H705.292V245.207C704.908 245.719 703.724 246.487 703.036 246.599V244.999C704.14 244.631 705.196 243.783 705.724 242.695H706.924ZM712.155 253.879H710.139V251.815H712.155V253.879ZM715.83 252.455H720.374V253.879H713.718C713.91 249.527 718.742 248.887 718.742 245.703C718.742 244.887 718.262 243.735 717.046 243.735C715.862 243.735 715.382 244.647 715.382 246.183C714.822 246.183 714.278 246.167 713.718 246.167V245.735C713.718 243.735 715.03 242.487 717.126 242.487C719.126 242.487 720.486 243.799 720.486 245.703C720.486 247.495 719.334 248.759 717.862 250.023L717.046 250.695C716.374 251.319 715.926 251.863 715.83 252.455ZM724.043 248.567H722.667L722.795 242.711H728.907V244.103H724.267L724.203 246.999C724.555 246.679 725.163 246.311 726.043 246.311C727.963 246.311 729.131 247.751 729.131 250.183C729.131 252.343 728.171 254.119 725.531 254.119C723.323 254.119 722.155 252.711 722.155 250.903H723.819C723.819 251.991 724.331 252.919 725.547 252.919C726.955 252.919 727.371 251.623 727.371 250.151C727.371 248.823 726.827 247.591 725.563 247.591C724.715 247.591 724.235 248.071 724.043 248.567Z" fill="black"/>
<line x1="0.607422" y1="48.1641" x2="760.01" y2="48.1641" stroke="#A8A8A8"/>
</svg>