<svg width="760" height="316" viewBox="0 0 760 316" fill="none" xmlns="http://www.w3.org/2000/svg">
<path d="M11.111 39.8755L9.57503 39.4435C7.67103 38.8675 6.32703 38.0515 6.32703 36.1635C6.32703 33.8595 8.24703 32.7715 10.407 32.7715C12.887 32.7715 14.439 34.0995 14.439 36.4835H12.583C12.583 34.9635 11.863 34.0995 10.359 34.0995C8.91903 34.0995 8.13503 34.8515 8.13503 35.8915C8.13503 37.3315 9.27103 37.4915 11.463 38.1315C13.831 38.7875 14.663 39.7475 14.663 41.5395C14.663 43.7635 12.903 45.0275 10.359 45.0275C7.73503 45.0275 6.07103 43.6835 6.07103 41.0275H7.95903C7.95903 42.8515 8.93503 43.7155 10.439 43.7155C11.815 43.7155 12.855 43.0115 12.855 41.7155C12.855 40.6755 12.199 40.1795 11.111 39.8755ZM16.8617 33.0435H18.6217V44.7715H16.8617V33.0435ZM26.5989 34.4035H20.7429V33.0435H28.6949V34.4515C27.8149 35.9395 23.4309 41.8755 22.5509 43.3795H28.6949V44.7715H20.3909V43.4115L26.5989 34.4035ZM30.5492 33.0435H37.4452V34.4035H32.3252V37.9235H36.8212V39.2995H32.3252V43.4115H37.5732V44.7715H30.5492V33.0435Z" fill="#A8A8A8"/>
<path d="M22.5173 83.8755L20.9813 83.4435C19.0773 82.8675 17.7333 82.0515 17.7333 80.1635C17.7333 77.8595 19.6533 76.7715 21.8133 76.7715C24.2933 76.7715 25.8453 78.0995 25.8453 80.4835H23.9893C23.9893 78.9635 23.2693 78.0995 21.7653 78.0995C20.3253 78.0995 19.5413 78.8515 19.5413 79.8915C19.5413 81.3315 20.6773 81.4915 22.8693 82.1315C25.2373 82.7875 26.0693 83.7475 26.0693 85.5395C26.0693 87.7635 24.3093 89.0275 21.7653 89.0275C19.1413 89.0275 17.4773 87.6835 17.4773 85.0275H19.3653C19.3653 86.8515 20.3413 87.7155 21.8453 87.7155C23.2213 87.7155 24.2613 87.0115 24.2613 85.7155C24.2613 84.6755 23.6053 84.1795 22.5173 83.8755ZM15.9945 121.043H18.5545L21.8185 130.531C22.8905 127.363 23.9465 124.195 25.0185 121.043H27.5625V132.771H25.9145V123.011L22.6025 132.771H20.9065L17.6105 123.043V132.771H15.9945V121.043ZM19.0179 165.043H20.7779V175.347H25.5619V176.771H19.0179V165.043ZM16.6873 214.611L13.2953 209.043H15.3273C15.6953 209.715 17.3113 212.371 17.6953 213.043L20.0313 209.043H21.9673C21.4393 209.955 19.1833 213.651 18.6553 214.579L22.4633 220.771H20.3833C19.9673 220.003 18.0953 216.931 17.6633 216.163C17.2473 216.931 15.3913 220.003 14.9753 220.771H12.9913L16.6873 214.611ZM24.2445 209.043H26.0045V219.347H30.7885V220.771H24.2445V209.043Z" fill="black"/>
<path d="M248.205 33.0435H252.333C254.445 33.0435 255.725 34.0355 255.725 35.9395C255.725 37.2195 254.957 38.2595 253.853 38.5955C255.213 38.8835 256.205 39.9075 256.205 41.3795C256.205 43.5395 254.909 44.7715 252.205 44.7715H248.205V33.0435ZM249.981 34.3715V38.0195H251.981C253.069 38.0195 253.949 37.3155 253.949 36.1315C253.949 34.3715 252.397 34.3715 251.101 34.3715H249.981ZM249.965 39.3635V43.4115H251.725C253.501 43.4115 254.381 42.8675 254.381 41.3155C254.381 39.7955 253.389 39.3635 251.789 39.3635H249.965Z" fill="#A8A8A8"/>
<path d="M245.947 87.3475H250.491V88.7715H243.835C244.027 84.4195 248.859 83.7795 248.859 80.5955C248.859 79.7795 248.379 78.6275 247.163 78.6275C245.979 78.6275 245.499 79.5395 245.499 81.0755C244.939 81.0755 244.395 81.0595 243.835 81.0595V80.6275C243.835 78.6275 245.147 77.3795 247.243 77.3795C249.243 77.3795 250.603 78.6915 250.603 80.5955C250.603 82.3875 249.451 83.6515 247.979 84.9155L247.163 85.5875C246.491 86.2115 246.043 86.7555 245.947 87.3475ZM252.272 83.2195C252.272 79.9075 253.44 77.3955 256.112 77.3955C258.928 77.3955 259.984 79.7635 259.984 83.2195C259.984 86.5315 258.848 89.0275 256.112 89.0275C253.136 89.0275 252.272 86.2915 252.272 83.2195ZM254.048 83.2675C254.048 85.8755 254.592 87.7315 256.112 87.7315C257.744 87.7315 258.224 85.4915 258.224 83.2355C258.224 80.6115 257.696 78.7075 256.128 78.7075C254.656 78.7075 254.048 80.5315 254.048 83.2675ZM246.884 131.347H251.428V132.771H244.772C244.964 128.419 249.796 127.779 249.796 124.595C249.796 123.779 249.316 122.627 248.1 122.627C246.916 122.627 246.436 123.539 246.436 125.075C245.876 125.075 245.332 125.059 244.772 125.059V124.627C244.772 122.627 246.084 121.379 248.18 121.379C250.18 121.379 251.54 122.691 251.54 124.595C251.54 126.387 250.388 127.651 248.916 128.915L248.1 129.587C247.428 130.211 246.98 130.755 246.884 131.347ZM257.385 121.587V132.771H255.753V124.099C255.369 124.611 254.185 125.379 253.497 125.491V123.891C254.601 123.523 255.657 122.675 256.185 121.587H257.385ZM246.353 175.347H250.897V176.771H244.241C244.433 172.419 249.265 171.779 249.265 168.595C249.265 167.779 248.785 166.627 247.569 166.627C246.385 166.627 245.905 167.539 245.905 169.075C245.345 169.075 244.801 169.059 244.241 169.059V168.627C244.241 166.627 245.553 165.379 247.649 165.379C249.649 165.379 251.009 166.691 251.009 168.595C251.009 170.387 249.857 171.651 248.385 172.915L247.569 173.587C246.897 174.211 246.449 174.755 246.353 175.347ZM254.806 175.347H259.35V176.771H252.694C252.886 172.419 257.718 171.779 257.718 168.595C257.718 167.779 257.238 166.627 256.022 166.627C254.838 166.627 254.358 167.539 254.358 169.075C253.798 169.075 253.254 169.059 252.694 169.059V168.627C252.694 166.627 254.006 165.379 256.102 165.379C258.102 165.379 259.462 166.691 259.462 168.595C259.462 170.387 258.31 171.651 256.838 172.915L256.022 173.587C255.35 174.211 254.902 174.755 254.806 175.347ZM246.259 219.347H250.803V220.771H244.147C244.339 216.419 249.171 215.779 249.171 212.595C249.171 211.779 248.691 210.627 247.475 210.627C246.291 210.627 245.811 211.539 245.811 213.075C245.251 213.075 244.707 213.059 244.147 213.059V212.627C244.147 210.627 245.459 209.379 247.555 209.379C249.555 209.379 250.915 210.691 250.915 212.595C250.915 214.387 249.763 215.651 248.291 216.915L247.475 217.587C246.803 218.211 246.355 218.755 246.259 219.347ZM255.112 215.603V214.323H255.64C256.888 214.323 257.688 213.875 257.688 212.435C257.688 211.443 257.128 210.611 256.056 210.611C254.936 210.611 254.44 211.427 254.44 212.323V212.627H252.712C252.712 211.187 253.4 209.395 256.088 209.395H256.168C257.896 209.411 259.4 210.499 259.4 212.387C259.4 213.251 259.064 214.435 257.768 214.947C258.92 215.267 259.608 216.243 259.608 217.651C259.608 218.979 258.904 221.027 255.944 221.027C253.544 221.027 252.504 219.587 252.504 217.715H254.248C254.248 219.043 254.92 219.795 255.96 219.795C257.144 219.795 257.816 219.155 257.816 217.635C257.816 216.083 257.192 215.603 255.688 215.603H255.112ZM246.212 263.347H250.756V264.771H244.1C244.292 260.419 249.124 259.779 249.124 256.595C249.124 255.779 248.644 254.627 247.428 254.627C246.244 254.627 245.764 255.539 245.764 257.075C245.204 257.075 244.66 257.059 244.1 257.059V256.627C244.1 254.627 245.412 253.379 247.508 253.379C249.508 253.379 250.868 254.691 250.868 256.595C250.868 258.387 249.716 259.651 248.244 260.915L247.428 261.587C246.756 262.211 246.308 262.755 246.212 263.347ZM252.282 260.739L256.33 253.555H258.474V260.707H260.026V262.099H258.458V264.771H256.858V262.099H252.282V260.739ZM253.818 260.723H256.858V255.171L253.818 260.723Z" fill="black"/>
<path d="M136.897 34.8675L134.977 40.4675H138.721L136.897 34.8675ZM140.129 44.7715L139.169 41.9075H134.481C134.145 42.8675 133.825 43.8275 133.489 44.7715H131.633L135.937 33.0435H138.001C139.329 36.9635 140.673 40.8515 142.001 44.7715H140.129Z" fill="#A8A8A8"/>
<path d="M131.202 83.6035V82.3235H131.73C132.978 82.3235 133.778 81.8755 133.778 80.4355C133.778 79.4435 133.218 78.6115 132.146 78.6115C131.026 78.6115 130.53 79.4275 130.53 80.3235V80.6275H128.802C128.802 79.1875 129.49 77.3955 132.178 77.3955H132.258C133.986 77.4115 135.49 78.4995 135.49 80.3875C135.49 81.2515 135.154 82.4355 133.858 82.9475C135.01 83.2675 135.698 84.2435 135.698 85.6515C135.698 86.9795 134.994 89.0275 132.034 89.0275C129.634 89.0275 128.594 87.5875 128.594 85.7155H130.338C130.338 87.0435 131.01 87.7955 132.05 87.7955C133.234 87.7955 133.906 87.1555 133.906 85.6355C133.906 84.0835 133.282 83.6035 131.778 83.6035H131.202ZM137.315 83.2195C137.315 79.9075 138.483 77.3955 141.155 77.3955C143.971 77.3955 145.027 79.7635 145.027 83.2195C145.027 86.5315 143.891 89.0275 141.155 89.0275C138.179 89.0275 137.315 86.2915 137.315 83.2195ZM139.091 83.2675C139.091 85.8755 139.635 87.7315 141.155 87.7315C142.787 87.7315 143.267 85.4915 143.267 83.2355C143.267 80.6115 142.739 78.7075 141.171 78.7075C139.699 78.7075 139.091 80.5315 139.091 83.2675ZM131.609 127.603V126.323H132.137C133.385 126.323 134.185 125.875 134.185 124.435C134.185 123.443 133.625 122.611 132.553 122.611C131.433 122.611 130.937 123.427 130.937 124.323V124.627H129.209C129.209 123.187 129.897 121.395 132.585 121.395H132.665C134.393 121.411 135.897 122.499 135.897 124.387C135.897 125.251 135.561 126.435 134.265 126.947C135.417 127.267 136.105 128.243 136.105 129.651C136.105 130.979 135.401 133.027 132.441 133.027C130.041 133.027 129.001 131.587 129.001 129.715H130.745C130.745 131.043 131.417 131.795 132.457 131.795C133.641 131.795 134.313 131.155 134.313 129.635C134.313 128.083 133.689 127.603 132.185 127.603H131.609ZM139.849 131.347H144.393V132.771H137.737C137.929 128.419 142.761 127.779 142.761 124.595C142.761 123.779 142.281 122.627 141.065 122.627C139.881 122.627 139.401 123.539 139.401 125.075C138.841 125.075 138.297 125.059 137.737 125.059V124.627C137.737 122.627 139.049 121.379 141.145 121.379C143.145 121.379 144.505 122.691 144.505 124.595C144.505 126.387 143.353 127.651 141.881 128.915L141.065 129.587C140.393 130.211 139.945 130.755 139.849 131.347ZM131.468 171.603V170.323H131.996C133.244 170.323 134.044 169.875 134.044 168.435C134.044 167.443 133.484 166.611 132.412 166.611C131.292 166.611 130.796 167.427 130.796 168.323V168.627H129.068C129.068 167.187 129.756 165.395 132.444 165.395H132.524C134.252 165.411 135.756 166.499 135.756 168.387C135.756 169.251 135.42 170.435 134.124 170.947C135.276 171.267 135.964 172.243 135.964 173.651C135.964 174.979 135.26 177.027 132.3 177.027C129.9 177.027 128.86 175.587 128.86 173.715H130.604C130.604 175.043 131.276 175.795 132.316 175.795C133.5 175.795 134.172 175.155 134.172 173.635C134.172 172.083 133.548 171.603 132.044 171.603H131.468ZM137.325 172.739L141.373 165.555H143.517V172.707H145.069V174.099H143.501V176.771H141.901V174.099H137.325V172.739ZM138.861 172.723H141.901V167.171L138.861 172.723ZM131.312 215.603V214.323H131.84C133.088 214.323 133.888 213.875 133.888 212.435C133.888 211.443 133.328 210.611 132.256 210.611C131.136 210.611 130.64 211.427 130.64 212.323V212.627H128.912C128.912 211.187 129.6 209.395 132.288 209.395H132.368C134.096 209.411 135.6 210.499 135.6 212.387C135.6 213.251 135.264 214.435 133.968 214.947C135.12 215.267 135.808 216.243 135.808 217.651C135.808 218.979 135.104 221.027 132.144 221.027C129.744 221.027 128.704 219.587 128.704 217.715H130.448C130.448 219.043 131.12 219.795 132.16 219.795C133.344 219.795 134.016 219.155 134.016 217.635C134.016 216.083 133.392 215.603 131.888 215.603H131.312ZM144.8 212.275H143.184C143.088 211.379 142.56 210.675 141.536 210.675C139.728 210.675 139.312 213.043 139.232 214.931C139.616 214.227 140.528 213.571 141.76 213.571C143.296 213.571 144.96 214.547 144.96 217.139C144.96 218.851 144.016 220.995 141.28 220.995C138.64 220.995 137.552 219.043 137.552 215.651C137.552 211.347 139.024 209.395 141.52 209.395C143.728 209.395 144.656 210.835 144.8 212.275ZM141.296 214.851C140.016 214.851 139.344 215.859 139.344 217.315C139.344 218.547 139.952 219.715 141.296 219.715C142.32 219.715 143.248 218.851 143.248 217.283C143.248 216.067 142.656 214.851 141.296 214.851ZM131.374 259.603V258.323H131.902C133.15 258.323 133.95 257.875 133.95 256.435C133.95 255.443 133.39 254.611 132.318 254.611C131.198 254.611 130.702 255.427 130.702 256.323V256.627H128.974C128.974 255.187 129.662 253.395 132.35 253.395H132.43C134.158 253.411 135.662 254.499 135.662 256.387C135.662 257.251 135.326 258.435 134.03 258.947C135.182 259.267 135.87 260.243 135.87 261.651C135.87 262.979 135.166 265.027 132.206 265.027C129.806 265.027 128.766 263.587 128.766 261.715H130.51C130.51 263.043 131.182 263.795 132.222 263.795C133.406 263.795 134.078 263.155 134.078 261.635C134.078 260.083 133.454 259.603 131.95 259.603H131.374ZM141.071 265.011C139.215 264.995 137.391 263.971 137.391 261.731C137.391 260.339 138.223 259.267 139.279 258.947C138.287 258.515 137.631 257.555 137.631 256.403C137.631 254.467 139.199 253.395 141.135 253.395C143.055 253.395 144.623 254.467 144.623 256.403C144.623 257.555 143.967 258.515 142.975 258.947C144.063 259.267 144.879 260.339 144.879 261.731C144.879 264.067 142.895 265.011 141.135 265.011H141.071ZM141.135 254.659C140.111 254.659 139.327 255.283 139.327 256.515C139.327 257.699 140.159 258.387 141.135 258.387C142.095 258.387 142.943 257.699 142.943 256.515C142.943 255.251 142.143 254.659 141.135 254.659ZM141.135 259.571C139.887 259.571 139.071 260.451 139.071 261.667C139.071 263.027 139.967 263.763 141.135 263.763C142.319 263.763 143.183 263.027 143.183 261.667C143.183 260.467 142.383 259.571 141.135 259.571Z" fill="black"/>
<path d="M421.31 39.8755L419.774 39.4435C417.87 38.8675 416.526 38.0515 416.526 36.1635C416.526 33.8595 418.446 32.7715 420.606 32.7715C423.086 32.7715 424.638 34.0995 424.638 36.4835H422.782C422.782 34.9635 422.062 34.0995 420.558 34.0995C419.118 34.0995 418.334 34.8515 418.334 35.8915C418.334 37.3315 419.47 37.4915 421.662 38.1315C424.03 38.7875 424.862 39.7475 424.862 41.5395C424.862 43.7635 423.102 45.0275 420.558 45.0275C417.934 45.0275 416.27 43.6835 416.27 41.0275H418.158C418.158 42.8515 419.134 43.7155 420.638 43.7155C422.014 43.7155 423.054 43.0115 423.054 41.7155C423.054 40.6755 422.398 40.1795 421.31 39.8755ZM427.061 33.0435H428.821V44.7715H427.061V33.0435ZM436.798 34.4035H430.942V33.0435H438.894V34.4515C438.014 35.9395 433.63 41.8755 432.75 43.3795H438.894V44.7715H430.59V43.4115L436.798 34.4035ZM440.748 33.0435H447.644V34.4035H442.524V37.9235H447.02V39.2995H442.524V43.4115H447.772V44.7715H440.748V33.0435Z" fill="#A8A8A8"/>
<path d="M429.069 77.5875V88.7715H427.437V80.0995C427.053 80.6115 425.869 81.3795 425.181 81.4915V79.8915C426.285 79.5235 427.341 78.6755 427.869 77.5875H429.069ZM432.06 77.5715H439.292V78.8515C437.58 82.0835 436.156 85.4115 435.18 88.7715H433.388C434.492 85.0435 436.156 81.7315 437.692 78.9955H432.06V77.5715ZM422.967 121.587V132.771H421.335V124.099C420.951 124.611 419.767 125.379 419.079 125.491V123.891C420.183 123.523 421.239 122.675 421.767 121.587H422.967ZM425.958 121.571H433.19V122.851C431.478 126.083 430.054 129.411 429.078 132.771H427.286C428.39 129.043 430.054 125.731 431.59 122.995H425.958V121.571ZM436.573 132.771H434.557V130.707H436.573V132.771ZM440.008 127.459H438.632L438.76 121.603H444.872V122.995H440.232L440.168 125.891C440.52 125.571 441.128 125.203 442.008 125.203C443.928 125.203 445.096 126.643 445.096 129.075C445.096 131.235 444.136 133.011 441.496 133.011C439.288 133.011 438.12 131.603 438.12 129.795H439.784C439.784 130.883 440.296 131.811 441.512 131.811C442.92 131.811 443.336 130.515 443.336 129.043C443.336 127.715 442.792 126.483 441.528 126.483C440.68 126.483 440.2 126.963 440.008 127.459ZM428.796 165.587V176.771H427.164V168.099C426.78 168.611 425.596 169.379 424.908 169.491V167.891C426.012 167.523 427.068 166.675 427.596 165.587H428.796ZM435.594 177.011C433.738 176.995 431.914 175.971 431.914 173.731C431.914 172.339 432.746 171.267 433.802 170.947C432.81 170.515 432.154 169.555 432.154 168.403C432.154 166.467 433.722 165.395 435.658 165.395C437.578 165.395 439.146 166.467 439.146 168.403C439.146 169.555 438.49 170.515 437.498 170.947C438.586 171.267 439.402 172.339 439.402 173.731C439.402 176.067 437.418 177.011 435.658 177.011H435.594ZM435.658 166.659C434.634 166.659 433.85 167.283 433.85 168.515C433.85 169.699 434.682 170.387 435.658 170.387C436.618 170.387 437.466 169.699 437.466 168.515C437.466 167.251 436.666 166.659 435.658 166.659ZM435.658 171.571C434.41 171.571 433.594 172.451 433.594 173.667C433.594 175.027 434.49 175.763 435.658 175.763C436.842 175.763 437.706 175.027 437.706 173.667C437.706 172.467 436.906 171.571 435.658 171.571ZM422.694 209.587V220.771H421.062V212.099C420.678 212.611 419.494 213.379 418.806 213.491V211.891C419.91 211.523 420.966 210.675 421.494 209.587H422.694ZM429.493 221.011C427.637 220.995 425.813 219.971 425.813 217.731C425.813 216.339 426.645 215.267 427.701 214.947C426.709 214.515 426.053 213.555 426.053 212.403C426.053 210.467 427.621 209.395 429.557 209.395C431.477 209.395 433.045 210.467 433.045 212.403C433.045 213.555 432.389 214.515 431.397 214.947C432.485 215.267 433.301 216.339 433.301 217.731C433.301 220.067 431.317 221.011 429.557 221.011H429.493ZM429.557 210.659C428.533 210.659 427.749 211.283 427.749 212.515C427.749 213.699 428.581 214.387 429.557 214.387C430.517 214.387 431.365 213.699 431.365 212.515C431.365 211.251 430.565 210.659 429.557 210.659ZM429.557 215.571C428.309 215.571 427.493 216.451 427.493 217.667C427.493 219.027 428.389 219.763 429.557 219.763C430.741 219.763 431.605 219.027 431.605 217.667C431.605 216.467 430.805 215.571 429.557 215.571ZM436.847 220.771H434.831V218.707H436.847V220.771ZM440.281 215.459H438.905L439.033 209.603H445.145V210.995H440.505L440.441 213.891C440.793 213.571 441.401 213.203 442.281 213.203C444.201 213.203 445.369 214.643 445.369 217.075C445.369 219.235 444.409 221.011 441.769 221.011C439.561 221.011 438.393 219.603 438.393 217.795H440.057C440.057 218.883 440.569 219.811 441.785 219.811C443.193 219.811 443.609 218.515 443.609 217.043C443.609 215.715 443.065 214.483 441.801 214.483C440.953 214.483 440.473 214.963 440.281 215.459ZM428.733 253.587V264.771H427.101V256.099C426.717 256.611 425.533 257.379 424.845 257.491V255.891C425.949 255.523 427.005 254.675 427.533 253.587H428.733ZM435.548 254.707C434.38 254.707 433.612 255.667 433.612 257.139C433.612 258.691 434.524 259.459 435.548 259.459C436.812 259.459 437.532 258.419 437.532 257.123C437.532 255.747 436.748 254.707 435.548 254.707ZM432.14 262.051H433.756C433.788 262.931 434.412 263.747 435.468 263.747C437.292 263.747 437.644 261.539 437.644 259.491C437.276 260.307 436.444 260.835 435.244 260.835C433.564 260.835 431.916 259.587 431.916 257.187C431.916 254.867 433.436 253.379 435.564 253.379C437.74 253.379 439.324 254.835 439.324 258.803C439.324 262.499 438.476 265.011 435.404 265.011C433.292 265.011 432.172 263.475 432.14 262.051Z" fill="black"/>
<path d="M551.932 34.8675L550.012 40.4675H553.756L551.932 34.8675ZM555.164 44.7715L554.204 41.9075H549.516C549.18 42.8675 548.86 43.8275 548.524 44.7715H546.668L550.972 33.0435H553.036C554.364 36.9635 555.708 40.8515 557.036 44.7715H555.164Z" fill="#A8A8A8"/>
<path d="M548.956 77.5875V88.7715H547.324V80.0995C546.94 80.6115 545.756 81.3795 545.068 81.4915V79.8915C546.172 79.5235 547.228 78.6755 547.756 77.5875H548.956ZM551.946 77.5715H559.178V78.8515C557.466 82.0835 556.042 85.4115 555.066 88.7715H553.274C554.378 85.0435 556.042 81.7315 557.578 78.9955H551.946V77.5715ZM542.854 121.587V132.771H541.222V124.099C540.838 124.611 539.654 125.379 538.966 125.491V123.891C540.07 123.523 541.126 122.675 541.654 121.587H542.854ZM545.845 121.571H553.077V122.851C551.365 126.083 549.941 129.411 548.965 132.771H547.173C548.277 129.043 549.941 125.731 551.477 122.995H545.845V121.571ZM556.46 132.771H554.444V130.707H556.46V132.771ZM559.894 127.459H558.518L558.646 121.603H564.758V122.995H560.118L560.054 125.891C560.406 125.571 561.014 125.203 561.894 125.203C563.814 125.203 564.982 126.643 564.982 129.075C564.982 131.235 564.022 133.011 561.382 133.011C559.174 133.011 558.006 131.603 558.006 129.795H559.67C559.67 130.883 560.182 131.811 561.398 131.811C562.806 131.811 563.222 130.515 563.222 129.043C563.222 127.715 562.678 126.483 561.414 126.483C560.566 126.483 560.086 126.963 559.894 127.459ZM548.682 165.587V176.771H547.05V168.099C546.666 168.611 545.482 169.379 544.794 169.491V167.891C545.898 167.523 546.954 166.675 547.482 165.587H548.682ZM555.481 177.011C553.625 176.995 551.801 175.971 551.801 173.731C551.801 172.339 552.633 171.267 553.689 170.947C552.697 170.515 552.041 169.555 552.041 168.403C552.041 166.467 553.609 165.395 555.545 165.395C557.465 165.395 559.033 166.467 559.033 168.403C559.033 169.555 558.377 170.515 557.385 170.947C558.473 171.267 559.289 172.339 559.289 173.731C559.289 176.067 557.305 177.011 555.545 177.011H555.481ZM555.545 166.659C554.521 166.659 553.737 167.283 553.737 168.515C553.737 169.699 554.569 170.387 555.545 170.387C556.505 170.387 557.353 169.699 557.353 168.515C557.353 167.251 556.553 166.659 555.545 166.659ZM555.545 171.571C554.297 171.571 553.481 172.451 553.481 173.667C553.481 175.027 554.377 175.763 555.545 175.763C556.729 175.763 557.593 175.027 557.593 173.667C557.593 172.467 556.793 171.571 555.545 171.571ZM542.581 209.587V220.771H540.949V212.099C540.565 212.611 539.381 213.379 538.693 213.491V211.891C539.797 211.523 540.853 210.675 541.381 209.587H542.581ZM549.379 221.011C547.523 220.995 545.699 219.971 545.699 217.731C545.699 216.339 546.531 215.267 547.587 214.947C546.595 214.515 545.939 213.555 545.939 212.403C545.939 210.467 547.507 209.395 549.443 209.395C551.363 209.395 552.931 210.467 552.931 212.403C552.931 213.555 552.275 214.515 551.283 214.947C552.371 215.267 553.187 216.339 553.187 217.731C553.187 220.067 551.203 221.011 549.443 221.011H549.379ZM549.443 210.659C548.419 210.659 547.635 211.283 547.635 212.515C547.635 213.699 548.467 214.387 549.443 214.387C550.403 214.387 551.251 213.699 551.251 212.515C551.251 211.251 550.451 210.659 549.443 210.659ZM549.443 215.571C548.195 215.571 547.379 216.451 547.379 217.667C547.379 219.027 548.275 219.763 549.443 219.763C550.627 219.763 551.491 219.027 551.491 217.667C551.491 216.467 550.691 215.571 549.443 215.571ZM556.733 220.771H554.717V218.707H556.733V220.771ZM560.168 215.459H558.792L558.92 209.603H565.032V210.995H560.392L560.328 213.891C560.68 213.571 561.288 213.203 562.168 213.203C564.088 213.203 565.256 214.643 565.256 217.075C565.256 219.235 564.296 221.011 561.656 221.011C559.448 221.011 558.28 219.603 558.28 217.795H559.944C559.944 218.883 560.456 219.811 561.672 219.811C563.08 219.811 563.496 218.515 563.496 217.043C563.496 215.715 562.952 214.483 561.688 214.483C560.84 214.483 560.36 214.963 560.168 215.459ZM548.62 253.587V264.771H546.988V256.099C546.604 256.611 545.42 257.379 544.732 257.491V255.891C545.836 255.523 546.892 254.675 547.42 253.587H548.62ZM555.434 254.707C554.266 254.707 553.498 255.667 553.498 257.139C553.498 258.691 554.41 259.459 555.434 259.459C556.698 259.459 557.418 258.419 557.418 257.123C557.418 255.747 556.634 254.707 555.434 254.707ZM552.026 262.051H553.642C553.674 262.931 554.298 263.747 555.354 263.747C557.178 263.747 557.53 261.539 557.53 259.491C557.162 260.307 556.33 260.835 555.13 260.835C553.45 260.835 551.802 259.587 551.802 257.187C551.802 254.867 553.322 253.379 555.45 253.379C557.626 253.379 559.21 254.835 559.21 258.803C559.21 262.499 558.362 265.011 555.29 265.011C553.178 265.011 552.058 263.475 552.026 262.051Z" fill="black"/>
<path d="M657.295 33.0435H661.423C663.535 33.0435 664.815 34.0355 664.815 35.9395C664.815 37.2195 664.047 38.2595 662.943 38.5955C664.303 38.8835 665.295 39.9075 665.295 41.3795C665.295 43.5395 663.999 44.7715 661.295 44.7715H657.295V33.0435ZM659.071 34.3715V38.0195H661.071C662.159 38.0195 663.039 37.3155 663.039 36.1315C663.039 34.3715 661.487 34.3715 660.191 34.3715H659.071ZM659.055 39.3635V43.4115H660.815C662.591 43.4115 663.471 42.8675 663.471 41.3155C663.471 39.7955 662.479 39.3635 660.879 39.3635H659.055Z" fill="#A8A8A8"/>
<path d="M658.061 77.5875V88.7715H656.429V80.0995C656.045 80.6115 654.861 81.3795 654.173 81.4915V79.8915C655.277 79.5235 656.333 78.6755 656.861 77.5875H658.061ZM661.052 77.5715H668.284V78.8515C666.572 82.0835 665.148 85.4115 664.172 88.7715H662.38C663.484 85.0435 665.148 81.7315 666.684 78.9955H661.052V77.5715ZM651.96 121.587V132.771H650.328V124.099C649.944 124.611 648.76 125.379 648.072 125.491V123.891C649.176 123.523 650.232 122.675 650.76 121.587H651.96ZM654.95 121.571H662.182V122.851C660.47 126.083 659.046 129.411 658.07 132.771H656.278C657.382 129.043 659.046 125.731 660.582 122.995H654.95V121.571ZM665.565 132.771H663.549V130.707H665.565V132.771ZM669 127.459H667.624L667.752 121.603H673.864V122.995H669.224L669.16 125.891C669.512 125.571 670.12 125.203 671 125.203C672.92 125.203 674.088 126.643 674.088 129.075C674.088 131.235 673.128 133.011 670.488 133.011C668.28 133.011 667.112 131.603 667.112 129.795H668.776C668.776 130.883 669.288 131.811 670.504 131.811C671.912 131.811 672.328 130.515 672.328 129.043C672.328 127.715 671.784 126.483 670.52 126.483C669.672 126.483 669.192 126.963 669 127.459ZM657.788 165.587V176.771H656.156V168.099C655.772 168.611 654.588 169.379 653.9 169.491V167.891C655.004 167.523 656.06 166.675 656.588 165.587H657.788ZM664.586 177.011C662.73 176.995 660.906 175.971 660.906 173.731C660.906 172.339 661.738 171.267 662.794 170.947C661.802 170.515 661.146 169.555 661.146 168.403C661.146 166.467 662.714 165.395 664.65 165.395C666.57 165.395 668.138 166.467 668.138 168.403C668.138 169.555 667.482 170.515 666.49 170.947C667.578 171.267 668.394 172.339 668.394 173.731C668.394 176.067 666.41 177.011 664.65 177.011H664.586ZM664.65 166.659C663.626 166.659 662.842 167.283 662.842 168.515C662.842 169.699 663.674 170.387 664.65 170.387C665.61 170.387 666.458 169.699 666.458 168.515C666.458 167.251 665.658 166.659 664.65 166.659ZM664.65 171.571C663.402 171.571 662.586 172.451 662.586 173.667C662.586 175.027 663.482 175.763 664.65 175.763C665.834 175.763 666.698 175.027 666.698 173.667C666.698 172.467 665.898 171.571 664.65 171.571ZM651.686 209.587V220.771H650.054V212.099C649.67 212.611 648.486 213.379 647.798 213.491V211.891C648.902 211.523 649.958 210.675 650.486 209.587H651.686ZM658.485 221.011C656.629 220.995 654.805 219.971 654.805 217.731C654.805 216.339 655.637 215.267 656.693 214.947C655.701 214.515 655.045 213.555 655.045 212.403C655.045 210.467 656.613 209.395 658.549 209.395C660.469 209.395 662.037 210.467 662.037 212.403C662.037 213.555 661.381 214.515 660.389 214.947C661.477 215.267 662.293 216.339 662.293 217.731C662.293 220.067 660.309 221.011 658.549 221.011H658.485ZM658.549 210.659C657.525 210.659 656.741 211.283 656.741 212.515C656.741 213.699 657.573 214.387 658.549 214.387C659.509 214.387 660.357 213.699 660.357 212.515C660.357 211.251 659.557 210.659 658.549 210.659ZM658.549 215.571C657.301 215.571 656.485 216.451 656.485 217.667C656.485 219.027 657.381 219.763 658.549 219.763C659.733 219.763 660.597 219.027 660.597 217.667C660.597 216.467 659.797 215.571 658.549 215.571ZM665.839 220.771H663.823V218.707H665.839V220.771ZM669.273 215.459H667.897L668.025 209.603H674.137V210.995H669.497L669.433 213.891C669.785 213.571 670.393 213.203 671.273 213.203C673.193 213.203 674.361 214.643 674.361 217.075C674.361 219.235 673.401 221.011 670.761 221.011C668.553 221.011 667.385 219.603 667.385 217.795H669.049C669.049 218.883 669.561 219.811 670.777 219.811C672.185 219.811 672.601 218.515 672.601 217.043C672.601 215.715 672.057 214.483 670.793 214.483C669.945 214.483 669.465 214.963 669.273 215.459ZM657.725 253.587V264.771H656.093V256.099C655.709 256.611 654.525 257.379 653.837 257.491V255.891C654.941 255.523 655.997 254.675 656.525 253.587H657.725ZM664.54 254.707C663.372 254.707 662.604 255.667 662.604 257.139C662.604 258.691 663.516 259.459 664.54 259.459C665.804 259.459 666.524 258.419 666.524 257.123C666.524 255.747 665.74 254.707 664.54 254.707ZM661.132 262.051H662.748C662.78 262.931 663.404 263.747 664.46 263.747C666.284 263.747 666.636 261.539 666.636 259.491C666.268 260.307 665.436 260.835 664.236 260.835C662.556 260.835 660.908 259.587 660.908 257.187C660.908 254.867 662.428 253.379 664.556 253.379C666.732 253.379 668.316 254.835 668.316 258.803C668.316 262.499 667.468 265.011 664.396 265.011C662.284 265.011 661.164 263.475 661.132 262.051Z" fill="black"/>
<line x1="0.410156" y1="58.1641" x2="759.812" y2="58.1641" stroke="#A8A8A8"/>
<line x1="0.410156" y1="20.373" x2="759.812" y2="20.373" stroke="#A8A8A8"/>
<line x1="337.877" y1="0.957031" x2="337.877" y2="315.389" stroke="#A8A8A8"/>
</svg>
